<?xml version="1.0" encoding="UTF-8" standalone="no"?>
<svg
   version="1.1"
   width="306.32257"
   height="94.45575"
   id="svg155"
   sodipodi:docname="logo-dark-blue.svg"
   inkscape:version="1.3 (0e150ed6c4, 2023-07-21)"
   xmlns:inkscape="http://www.inkscape.org/namespaces/inkscape"
   xmlns:sodipodi="http://sodipodi.sourceforge.net/DTD/sodipodi-0.dtd"
   xmlns="http://www.w3.org/2000/svg"
   xmlns:svg="http://www.w3.org/2000/svg">
  <defs
     id="defs155" />
  <sodipodi:namedview
     id="namedview155"
     pagecolor="#ffffff"
     bordercolor="#000000"
     borderopacity="0.25"
     inkscape:showpageshadow="2"
     inkscape:pageopacity="0.0"
     inkscape:pagecheckerboard="0"
     inkscape:deskcolor="#d1d1d1"
     inkscape:zoom="1.554"
     inkscape:cx="117.11712"
     inkscape:cy="62.741313"
     inkscape:window-width="1920"
     inkscape:window-height="991"
     inkscape:window-x="-9"
     inkscape:window-y="-9"
     inkscape:window-maximized="1"
     inkscape:current-layer="svg155" />
  <path
     d="m 25.613544,0.6337485 c 3.168764,-0.0425 6.335543,-0.0494 9.504589,-0.0443 1.15455,-8.1e-4 2.30909,-0.002 3.49862,-0.002 2.4221,-0.001 4.84416,5.2e-4 7.26625,0.005 3.05754,0.005 6.11501,0.002 9.17254,-0.003 38.20364,-0.0525 38.20364,-0.0525 43.6226,4.98185 1.439097,2.63663 1.778387,5.2173705 2.081527,8.1402205 0.0699,0.6268 0.13978,1.25361 0.21178,1.89941 0.77702,7.75878 0.77873,15.53437 0.7445,23.32265 -0.009,2.54378 -3e-5,5.08706 0.0111,7.63083 0.0233,25.99422 0.0233,25.99422 -4.631337,33.99444 1.30419,0.42051 1.30419,0.42051 2.63472,0.84953 0.484927,3.09591 -0.15521,4.81291 -1.92115,7.32719 -1.99467,2.49471 -3.81083,4.1617 -6.86124,5.41575 -2.81799,0.34184 -3.96539,0.3108 -6.26432,-1.36722 -0.86606,-0.90016 -0.86606,-0.90016 -1.74962,-1.81852 -0.5819,-0.59135 -1.1638,-1.1827 -1.76334,-1.79197 -1.63984,-1.81853 -1.63984,-1.81853 -2.75522,-3.60394 -1.4033,-1.80895 -1.4033,-1.80895 -3.72437,-2.04216 -0.87993,-0.002 -1.75985,-0.005 -2.66645,-0.007 -1.00092,-0.0113 -2.00184,-0.0225 -3.0331,-0.0341 -1.08668,0.004 -2.17336,0.009 -3.29297,0.013 -1.72236,-0.0153 -3.44472,-0.0307 -5.16708,-0.0464 -2.42358,-0.0181 -4.84709,-0.0209 -7.27075,-0.0237 -28.438482,-0.0442 -28.438482,-0.0442 -38.829389,-0.97848 -0.981748,-0.0769 -0.981748,-0.0769 -1.983329,-0.15527 -4.0799027,-0.438 -6.5205197,-1.36255 -9.3240027,-4.28485 -4.594529,-10.18159 -2.77043904,-23.74195 -2.74921504,-34.60877 0.0047,-2.87592 2.1e-5,-5.75171 -0.0056,-8.62762 5.8e-4,-1.85503 0.0017,-3.71005 0.0034,-5.56508 -0.0018,-0.84625 -0.0036,-1.69249 -0.0054,-2.56438 0.05713,-16.8006805 0.05713,-16.8006805 3.63498504,-21.6936605 3.846846,-2.93773 6.5195487,-3.84946 11.3935267,-4.02821 0.859189,-0.0364 0.859189,-0.0364 1.735735,-0.0736 2.826398,-0.10898 5.653992,-0.15322 8.481891,-0.21436 z"
     fill="#181518"
     id="path2"
     style="opacity:1;stroke-width:0.863765" />
  <path
     d="m 45.680163,3.1400785 c 3.19652,0.005 6.39293,3e-5 9.58945,-0.005 9.38593,-0.004 18.77171,0.0417 28.15169,0.38826 0.7068,0.0187 1.41359,0.0374 2.14181,0.0566 5.04303,0.22944 7.98674,1.33847 11.53265,4.76846 1.06562,4.2262305 0.96754,8.4238405 0.87824,12.7429405 -4.545,0.0875 -9.00916,0.0158 -13.53466,-0.42289 -6.37231,-0.53323 -12.71978,-0.53394 -19.11114,-0.5096 -1.24512,0.002 -2.49024,0.003 -3.73536,0.004 -3.23979,0.003 -6.47955,0.0115 -9.71933,0.021 -3.32091,0.009 -6.64182,0.0126 -9.96274,0.0169 -6.48847,0.009 -12.976907,0.0235 -19.465355,0.0415 0,0.56069 0,1.12138 0,1.69906 0.50388,-0.004 1.00776,-0.008 1.526908,-0.0114 25.024657,-0.17847 49.917547,-0.14616 74.879917,1.71049 0.33365,34.11191 0.33365,34.11191 -0.76846,44.441 -0.0689,0.65623 -0.13783,1.31247 -0.20884,1.98859 -0.37326,2.95914 -0.79333,4.5627 -2.53566,7.09075 -0.45284,-0.22778 -0.90568,-0.45556 -1.37225,-0.69024 -2.26789,-1.11153 -2.26789,-1.11153 -5.26943,-2.12382 -3.32172,-1.57736 -4.01303,-2.58658 -5.65367,-5.68123 -1.30418,-0.84103 -1.30418,-0.84103 -2.63472,-1.69906 0.18001,-0.50265 0.36001,-1.0053 0.54547,-1.52318 3.15908,-8.96273 4.48466,-16.816 0.73759,-25.87746 -4.00849,-7.28836 -9.9052,-12.20792 -17.78092,-15.13555 -7.13457,-1.99577 -15.13839,-1.64081 -21.87365,1.44021 -7.50004,4.321 -12.643303,9.9986 -15.201088,18.15869 -1.241994,7.54998 -0.723932,15.48672 3.512957,22.08776 5.022901,6.65041 10.227241,10.4488 18.443031,12.74294 8.00689,0.7977 14.65288,-0.1687 21.95598,-3.39812 2.63472,3.18574 2.63472,3.18574 2.63472,5.09718 -5.41574,0.0214 -10.83145,0.0366 -16.24722,0.0467 -1.83338,0.004 -3.66677,0.01 -5.50014,0.0174 -9.61747,0.0381 -19.214728,-0.006 -28.823448,-0.43908 -0.745611,-0.0331 -1.491222,-0.0662 -2.259427,-0.10037 -2.006526,-0.10113 -4.008179,-0.22953 -6.011804,-0.37417 -1.112506,-0.0799 -2.225012,-0.15975 -3.37123,-0.24204 -3.2722977,-0.71598 -4.3819797,-1.34924 -6.2894027,-4.00561 -2.965755,-10.67255 -1.961716,-22.61369 -1.866259,-33.5564 0.0088,-1.77981 0.01684,-3.55961 0.02401,-5.33943 0.01912,-4.30858 0.0493,-8.61697 0.08577,-12.92545 1.26512,-0.14101 2.53041,-0.2806 3.795769,-0.41958 1.056885,-0.11683 1.056885,-0.11683 2.135121,-0.23601 3.3066007,-0.32498 6.5573677,-0.24492 9.8774187,-0.19394 -0.289819,-0.56069 -0.579638,-1.12138 -0.87824,-1.69906 -4.637104,0 -9.2742077,0 -14.0518297,0 C 3.6407923,9.5491185 3.6407923,9.5491185 6.6371093,5.8002985 17.841079,0.9835385 33.714773,3.1208285 45.680163,3.1409585 Z"
     fill="#f5f3f2"
     id="path3"
     style="opacity:1;stroke-width:0.863765" />
  <path
     d="m 63.942223,33.037449 c 5.53645,2.97244 9.23371,6.82832 11.19756,12.68984 0.73453,6.45252 0.76871,12.57934 -3.51296,17.84011 -4.66651,4.74956 -8.67132,7.62365 -15.53386,7.96434 -5.80089,-0.1503 -10.87043,-1.55057 -15.30401,-5.27637 -5.39012,-5.63492 -6.42228,-10.55131 -6.26774,-18.11887 0.27906,-3.06215 1.04907,-4.97742 2.85427,-7.50639 0.59776,-0.85855 1.19551,-1.71711 1.81137,-2.60168 6.51963,-7.15617 15.96628,-8.82187 24.75537,-4.99098 z"
     fill="#f1f3f5"
     id="path4"
     style="opacity:1;stroke-width:0.863765" />
  <path
     d="m 27.714854,21.940469 c 23.784509,-0.19911 47.410179,0.002 71.137389,1.69906 0.33365,34.11191 0.33365,34.11191 -0.76846,44.441 -0.0689,0.65623 -0.13783,1.31247 -0.20884,1.98859 -0.37326,2.95914 -0.79333,4.5627 -2.53566,7.09075 -0.45284,-0.22778 -0.90568,-0.45556 -1.37225,-0.69024 -2.26789,-1.11153 -2.26789,-1.11153 -5.26943,-2.12382 -3.32172,-1.57736 -4.01303,-2.58658 -5.65367,-5.68123 -0.86946,-0.56069 -1.73891,-1.12138 -2.63472,-1.69906 0.18001,-0.50265 0.36001,-1.0053 0.54547,-1.52318 3.15908,-8.96273 4.48466,-16.816 0.73759,-25.87746 -4.01057,-7.29212 -9.90569,-12.19789 -17.77749,-15.13887 -7.76488,-2.16034 -15.67036,-1.18224 -23.02634,1.76211 0,-2.54859 0,-2.54859 0.87824,-3.39812 -4.6371,0 -9.274207,0 -14.051829,0 0,-0.28034 0,-0.56069 0,-0.84953 z"
     fill="#f4f2f1"
     id="path5"
     style="opacity:1;stroke-width:0.863765" />
  <path
     d="m 40.946763,3.1379985 c 0.86832,-8.1e-4 1.73664,-0.002 2.63128,-0.002 1.84332,-5.8e-4 3.68664,9.9e-4 5.52996,0.005 2.75776,0.004 5.5154,8e-5 8.27316,-0.005 8.61979,-0.004 17.2373,0.0721 25.85146,0.38826 1.07722,0.028 1.07722,0.028 2.1762,0.0566 5.00783,0.22241 8.05675,1.25695 11.68694,4.76846 1.06695,4.2314805 0.95201,8.4208305 0.87824,12.7429405 -6.43957,0.0813 -12.81989,-0.16608 -19.24579,-0.5575 -0.96225,-0.0566 -1.92449,-0.11314 -2.9159,-0.17142 -3.04202,-0.17938 -6.0838,-0.36232 -9.12559,-0.54537 -2.07551,-0.12302 -4.15104,-0.24581 -6.22658,-0.36835 -5.06034,-0.29928 -10.12049,-0.60148 -15.1805,-0.90594 0.42793,-0.74577 0.42793,-0.74577 0.86452,-1.50659 1.26666,-2.68615 1.11498,-4.92581 0.89196,-7.8382405 -1.56905,-1.8806 -1.56905,-1.8806 -3.65705,-1.86498 -0.71322,0.0197 -1.42645,0.0394 -2.16129,0.0597 -1.07663,0.023 -1.07663,0.023 -2.17501,0.0465 -0.82531,0.0296 -0.82531,0.0296 -1.66729,0.0597 -0.57963,1.68206 -1.15927,3.3641305 -1.75647,5.0971705 -0.73361,-0.97244 -0.73361,-0.97244 -1.48203,-1.96454 -2.006716,-2.2558805 -3.799321,-3.3517405 -6.422129,-4.8316905 0,-0.56069 0,-1.12138 0,-1.69906 4.380063,-1.11354 8.738529,-0.97172 13.231909,-0.96236 z"
     fill="#fafbfb"
     id="path6"
     style="opacity:1;stroke-width:0.863765" />
  <path
     d="m 65.431123,27.017739 c 1.9117,1.02176 3.59838,2.11878 5.31746,3.41802 0.77889,0.47309 1.55778,0.94617 2.36027,1.43358 6.1559,5.95467 8.45999,12.47472 8.52059,20.73196 -0.11449,5.39417 -1.65871,9.10359 -4.73318,13.51469 -0.89663,1.36668 -0.89663,1.36668 -1.81137,2.76097 -3.87656,4.23212 -11.66285,7.86975 -17.46187,8.45547 -8.11974,0.16891 -14.95813,-2.08623 -20.93366,-7.54953 -5.262078,-5.35965 -8.198883,-11.08905 -8.535389,-18.53367 0.332551,-7.35713 3.22214,-13.14009 8.398159,-18.47062 7.80848,-6.85271 18.78236,-8.99912 28.87899,-5.76087 z m -27.91841,12.89558 c -3.32526,5.1291 -3.283,10.11531 -2.77194,16.00832 1.66271,5.45056 4.7653,10.11047 9.89048,13.02169 5.72254,2.46793 11.37195,3.44712 17.47559,1.73888 5.46659,-2.28225 9.67006,-6.53492 12.30564,-11.66775 1.73093,-5.33893 1.74907,-11.9086 -0.64495,-17.05696 -3.29988,-5.32749 -8.33179,-8.87077 -14.43606,-10.67221 -8.89942,-1.30872 -16.20834,1.93893 -21.81876,8.62803 z"
     fill="#c69b72"
     id="path7"
     style="opacity:1;stroke-width:0.863765" />
  <path
     d="m 25.613544,0.6337485 c 3.168764,-0.0425 6.335543,-0.0494 9.504589,-0.0443 1.15455,-8.1e-4 2.30909,-0.002 3.49862,-0.002 2.4221,-0.001 4.84416,5.2e-4 7.26625,0.005 3.05754,0.005 6.11501,0.002 9.17254,-0.003 37.82965,-0.052 37.82965,-0.052 43.7967,4.99844 1.347967,2.93379 0.22043,4.9495605 -0.87824,7.8581505 -0.28982,0 -0.57964,0 -0.87824,0 -0.19925,-0.92864 -0.3985,-1.85728 -0.60379,-2.81407 -0.84092,-3.1338405 -0.84092,-3.1338405 -2.94991,-4.5666305 -3.36717,-1.44682 -6.49574,-1.59622 -10.12076,-1.69201 -0.75937,-0.0281 -1.51874,-0.0561 -2.30112,-0.085 -9.67035,-0.31639 -19.34915,-0.3143 -29.02389,-0.29786 -3.20767,0.005 -6.41524,1e-5 -9.6229,-0.005 -18.260915,-0.86161 -18.260915,-0.86161 -35.8362837,2.66474 -2.032075,2.86713 -2.094201,5.7278805 -2.305378,9.1324405 -0.108682,1.75215 -0.217364,3.5043 -0.32934,5.30955 4.637104,-0.28034 9.2742077,-0.56069 14.0518297,-0.84953 0.289819,0.84104 0.579638,1.68207 0.87824,2.54859 -4.041341,0.49641 -7.937931,0.87361 -12.0125397,0.86115 -0.711037,-0.002 -1.422074,-0.003 -2.154658,-0.005 -0.81235,-0.003 -0.81235,-0.003 -1.641111,-0.007 0.08321,5.19569 0.176594,10.39108 0.278738,15.58646 0.03327,1.76123 0.06394,3.52251 0.09177,5.28384 -0.851285,16.79984 -0.851285,16.79984 3.260378,32.52892 4.4549457,2.63904 11.0096587,2.05278 16.1397927,2.26817 0.799739,0.0351 1.599479,0.0702 2.423453,0.10639 9.230219,0.38757 18.464389,0.58593 27.700839,0.77301 1.73533,0.0368 3.47065,0.0739 5.20597,0.11117 4.17445,0.0892 8.34895,0.17566 12.52349,0.2605 0.28982,0.56069 0.57964,1.12138 0.87824,1.69906 -2.53342,0.81686 -4.14732,0.9614 -6.78063,0.97293 -0.84267,0.005 -1.68535,0.0108 -2.55356,0.0164 -0.91378,9.4e-4 -1.82757,0.002 -2.76905,0.003 -0.95086,0.003 -1.90172,0.006 -2.8814,0.009 -2.02288,0.004 -4.04577,0.006 -6.06866,0.006 -3.0375,0.002 -6.07471,0.0172 -9.11216,0.0334 -8.948098,0.0238 -17.866841,-0.0455 -26.782873,-0.83792 -0.669464,-0.0518 -1.338927,-0.10359 -2.028678,-0.15696 -4.1603777,-0.4376 -6.6744567,-1.29732 -9.5256587,-4.29311 -4.594529,-10.18159 -2.77043904,-23.74195 -2.74921504,-34.60877 0.0047,-2.87592 2.1e-5,-5.75171 -0.0056,-8.62762 5.8e-4,-1.85503 0.0017,-3.71005 0.0034,-5.56508 -0.0018,-0.84625 -0.0036,-1.69249 -0.0054,-2.56438 0.05713,-16.8006805 0.05713,-16.8006805 3.63498504,-21.6936605 3.846846,-2.93773 6.5195487,-3.84946 11.3935267,-4.02821 0.859189,-0.0364 0.859189,-0.0364 1.735735,-0.0736 2.826398,-0.10898 5.653992,-0.15322 8.481891,-0.21436 z"
     fill="#07080c"
     id="path8"
     style="opacity:1;stroke-width:0.863765" />
  <path
     d="m 40.888443,41.479639 c 0,4.48552 0,8.97103 0,13.59247 -1.44909,-0.28034 -2.89819,-0.56069 -4.3912,-0.84953 0,0.84104 0,1.68207 0,2.54859 2.52376,0.35465 2.52376,0.35465 5.26944,0 1.69976,-2.03086 1.69976,-2.03086 2.63472,-4.24765 2.63472,0.84953 2.63472,0.84953 4.17164,2.60169 1.92684,1.89296 1.92684,1.89296 4.94009,2.12382 4.13399,-0.62051 5.46561,-1.97333 8.45306,-4.72551 0.28982,0 0.57963,0 0.87824,0 0,1.68207 0,3.36414 0,5.09718 4.41496,-0.10235 7.11262,-0.20888 10.59376,-3.02645 0.84228,-1.02501 0.84228,-1.02501 1.70159,-2.07073 -0.46452,6.51531 -2.32636,10.2189 -7.41015,14.65438 -4.50531,3.51217 -8.17706,4.44348 -13.94205,4.29411 -5.95969,-0.65358 -10.57061,-2.67835 -14.65562,-6.94889 -4.19083,-5.20798 -4.82964,-9.91354 -4.73769,-16.42312 0.35463,-2.42843 0.69351,-3.4021 2.43231,-5.13368 2.30538,-1.48668 2.30538,-1.48668 4.06186,-1.48668 z"
     fill="#f8f9fa"
     id="path9"
     style="opacity:1;stroke-width:0.863765" />
  <path
     d="m 65.863373,30.488859 c 7.00657,3.9325 10.62791,9.44841 12.78936,16.93749 1.05576,6.17335 -1.17535,11.77553 -4.11674,17.14987 -4.24016,4.98837 -9.51332,8.74405 -16.25772,9.50079 -7.98003,0.14695 -13.64252,-0.83429 -19.85302,-5.84051 -4.5785,-4.57205 -7.238799,-11.12944 -7.636561,-17.46513 0.861496,-6.5625 3.348101,-12.32036 8.343271,-16.93749 8.24323,-5.1752 17.35617,-7.54863 26.73141,-3.34502 z m -28.35066,9.42446 c -3.32526,5.1291 -3.283,10.11531 -2.77194,16.00832 1.66271,5.45056 4.7653,10.11047 9.89048,13.02169 5.72254,2.46793 11.37195,3.44712 17.47559,1.73888 5.46659,-2.28225 9.67006,-6.53492 12.30564,-11.66775 1.73093,-5.33893 1.74907,-11.9086 -0.64495,-17.05696 -3.29988,-5.32749 -8.33179,-8.87077 -14.43606,-10.67221 -8.89942,-1.30872 -16.20834,1.93893 -21.81876,8.62803 z"
     fill="#1d1311"
     id="path10"
     style="opacity:1;stroke-width:0.863765" />
  <path
     d="m 67.777663,24.943689 c 6.34953,3.7758 13.10234,9.22 15.04671,16.42976 0.0725,0.59574 0.14491,1.19147 0.21956,1.80525 -0.57964,0 -1.15927,0 -1.75648,0 -0.28982,0.56069 -0.57964,1.12138 -0.87824,1.69906 -0.26604,-0.56397 -0.53209,-1.12795 -0.80619,-1.70901 -3.86467,-7.87925 -8.74637,-12.25595 -16.75859,-16.1311 -8.5613,-0.63564 -16.59509,-1.07118 -23.71247,4.24764 -5.5746,4.7131 -8.972191,10.49269 -9.9934,17.61114 -0.333669,7.38185 1.864891,13.44179 6.64512,19.1841 4.27576,4.39392 9.42607,7.39906 15.64363,8.22981 2.29644,0.0576 4.56667,0.0807 6.86125,0.0531 0.60851,-0.004 1.21701,-0.008 1.84396,-0.0116 1.48949,-0.01 2.97895,-0.0252 4.46838,-0.0415 0.28982,0.56069 0.57964,1.12138 0.87824,1.69906 -6.49505,2.94687 -14.56753,2.73719 -21.2973,0.47786 -8.42346,-3.82571 -14.014507,-10.01612 -17.345228,-18.31797 -2.373601,-6.88802 -1.829721,-15.20848 1.372249,-21.71609 8.010709,-13.33016 24.314249,-20.35175 39.568799,-13.50951 z"
     fill="#190e0b"
     id="path11"
     style="opacity:1;stroke-width:0.863765" />
  <path
     d="m 32.106051,3.2508285 c 0,0.28034 0,0.56069 0,0.84953 -1.449095,0 -2.89819,0 -4.391197,0 0,0.56069 0,1.12138 0,1.69906 0.68832,0.2453 1.37664,0.4906 2.085819,0.74334 2.305378,0.95572 2.305378,0.95572 4.06186,2.65477 0.41171,3.0533105 0.3896,4.5463805 -1.427142,7.1148105 -2.744596,1.81649 -4.089631,1.96069 -7.355255,1.38049 -2.524938,-2.12383 -2.524938,-2.12383 -4.391197,-4.24765 -0.679263,0.94616 -0.679263,0.94616 -1.372249,1.91144 -2.895144,3.15954 -5.854067,5.47452 -10.2472687,5.94339 -1.690543,0.003 -3.380631,-0.0946 -5.06703,-0.20907 -0.07158,-1.75159 -0.122443,-3.50398 -0.16467,-5.25646 -0.03057,-0.97573 -0.06113,-1.95146 -0.09263,-2.95676 0.282032,-3.1027805 0.936164,-4.6312505 2.892014,-7.0783005 7.6028287,-3.26858 17.2731157,-2.70715 25.4689417,-2.54859 z"
     fill="#e6e8eb"
     id="path12"
     style="opacity:1;stroke-width:0.863765" />
  <path
     d="m 128.43793,36.116989 c 4.83037,0.0278 7.26564,0.51013 10.81332,3.6636 1.66342,3.21808 1.17476,7.29063 0.32934,10.7253 -0.44467,2.72419 0.39411,4.58727 1.42714,7.11481 -2.63472,1.69906 -2.63472,1.69906 -5.26944,1.69906 -0.32604,-0.96369 -0.65209,-1.92737 -0.98802,-2.92026 -0.6511,-1.65141 -0.6511,-1.65141 -1.6467,-3.02645 -2.70822,-0.89837 -2.70822,-0.89837 -5.26943,-0.84953 0,1.96242 0,3.92483 0,5.94671 -1.45449,0.32468 -2.91977,0.60652 -4.3912,0.84953 -1.53293,-1.48282 -0.99261,-3.5351 -0.99488,-5.54849 -0.001,-0.95164 -0.002,-1.90328 -0.003,-2.88375 0.003,-1.00202 0.007,-2.00403 0.0103,-3.03641 -0.003,-1.00201 -0.007,-2.00402 -0.0103,-3.0364 0.001,-0.95164 0.002,-1.90328 0.003,-2.88375 9.9e-4,-0.87991 0.002,-1.75982 0.003,-2.6664 0.21466,-3.8394 2.49736,-3.06868 5.98687,-3.14757 z"
     fill="#090c12"
     id="path13"
     style="opacity:1;stroke-width:0.863765" />
  <path
     d="m 25.613544,0.6337485 c 3.168764,-0.0425 6.335543,-0.0494 9.504589,-0.0443 1.15455,-8.1e-4 2.30909,-0.002 3.49862,-0.002 2.4221,-0.001 4.84416,5.2e-4 7.26625,0.005 3.05754,0.005 6.11501,0.002 9.17254,-0.003 37.82965,-0.052 37.82965,-0.052 43.7967,4.99844 1.347967,2.93379 0.22043,4.9495605 -0.87824,7.8581505 -0.28982,0 -0.57964,0 -0.87824,0 -0.19925,-0.92864 -0.3985,-1.85728 -0.60379,-2.81407 -0.84092,-3.1338405 -0.84092,-3.1338405 -2.94991,-4.5666305 -3.36717,-1.44682 -6.49574,-1.59622 -10.12076,-1.69201 -0.75937,-0.0281 -1.51874,-0.0561 -2.30112,-0.085 -9.67035,-0.31639 -19.34915,-0.3143 -29.02389,-0.29786 -3.20767,0.005 -6.41524,1e-5 -9.6229,-0.005 -18.260915,-0.86161 -18.260915,-0.86161 -35.8362837,2.66474 -2.032075,2.86713 -2.094201,5.7278805 -2.305378,9.1324405 -0.06566,0.99434 -0.131324,1.98869 -0.198976,3.01317 -0.04302,0.75781 -0.08604,1.51561 -0.130364,2.29638 -0.289819,-0.84103 -0.579638,-1.68206 -0.878239,-2.54858 -0.579638,0 -1.159276,0 -1.756479,0 C 0.85313326,9.2159785 0.85313326,9.2159785 4.0023913,4.9511485 c 3.846568,-2.93866 6.5191607,-3.84945 11.3935267,-4.02821 0.859189,-0.0364 0.859189,-0.0364 1.735735,-0.0736 2.826398,-0.10898 5.653992,-0.15322 8.481891,-0.21436 z"
     fill="#13151f"
     id="path14"
     style="opacity:1;stroke-width:0.863765" />
  <path
     d="m 239.37054,36.269639 c 0.70643,-10e-4 1.41287,-0.002 2.14071,-0.003 0.74266,0.003 1.48532,0.007 2.25048,0.01 1.114,-0.005 1.114,-0.005 2.25049,-0.01 0.70644,0.001 1.41287,0.002 2.14071,0.003 0.65209,9.6e-4 1.30419,0.002 1.97604,0.003 1.53692,0.10993 1.53692,0.10993 2.41516,0.95946 0,1.40172 0,2.80344 0,4.24764 -4.05747,0 -8.11493,0 -12.29535,0 0,1.40173 0,2.80345 0,4.24765 2.89819,0 5.79638,0 8.78239,0 0,1.40172 0,2.80345 0,4.24765 -0.87824,0.84953 -0.87824,0.84953 -2.69304,0.93249 -0.72341,-0.01 -1.44683,-0.0197 -2.19217,-0.0299 -0.72567,-0.008 -1.45135,-0.0153 -2.19902,-0.0232 -0.84059,-0.0148 -0.84059,-0.0148 -1.69816,-0.0299 0,1.12137 0,2.24275 0,3.39811 4.05746,0 8.11493,0 12.29535,0 0,1.40173 0,2.80345 0,4.24765 -1.33677,1.29306 -2.53118,0.95962 -4.3912,0.96236 -0.70643,0.001 -1.41287,0.002 -2.14071,0.003 -0.74266,-0.003 -1.48532,-0.007 -2.25049,-0.01 -0.74266,0.003 -1.48532,0.007 -2.25048,0.01 -0.70644,-10e-4 -1.41287,-0.002 -2.14071,-0.003 -0.65209,-9.6e-4 -1.30419,-0.002 -1.97604,-0.003 -1.53692,-0.10992 -1.53692,-0.10992 -2.41516,-0.95945 -0.0875,-1.56449 -0.11488,-3.13219 -0.11664,-4.69896 -10e-4,-0.95164 -0.002,-1.90328 -0.003,-2.88375 0.003,-1.00202 0.007,-2.00403 0.0103,-3.03641 -0.003,-1.00201 -0.007,-2.00402 -0.0103,-3.0364 0.001,-0.95164 0.002,-1.90328 0.003,-2.88375 9.9e-4,-0.87991 0.002,-1.75982 0.003,-2.6664 0.18723,-3.34885 1.39354,-2.99035 4.50484,-2.99492 z"
     fill="#0c0f14"
     id="path15"
     style="opacity:1;stroke-width:0.863765" />
  <path
     d="m 77.774493,68.664579 c 0.6521,0.42052 1.30419,0.84103 1.97604,1.27429 2.47065,1.5455 2.47065,1.5455 5.92812,1.2743 0,0.56069 0,1.12138 0,1.69906 0.86946,0.28034 1.73891,0.56068 2.63472,0.84952 0.59323,1.12894 1.17793,2.26208 1.75648,3.39812 1.53751,1.29395 1.53751,1.29395 3.2385,2.4424 2.87257,2.3078 2.87257,2.3078 3.18362,5.25646 -1.59048,3.44328 -3.14117,4.68957 -6.42212,6.74314 -3.47534,-0.33141 -4.88982,-2.06384 -7.08424,-4.60107 -0.41548,-0.49662 -0.83096,-0.99325 -1.25904,-1.50492 -0.41548,-0.4802 -0.83096,-0.9604 -1.25904,-1.45515 -2.58386,-3.02213 -4.89089,-6.13189 -7.08423,-9.42945 0.57964,-1.12138 1.15927,-2.24275 1.75648,-3.39811 0.57963,0 1.15927,0 1.75648,0 0.28981,-0.84104 0.57963,-1.68207 0.87823,-2.54859 z"
     fill="#375c76"
     id="path16"
     style="opacity:1;stroke-width:0.863765" />
  <path
     d="m 270.98716,43.178699 c 0.87823,0.84953 0.87823,0.84953 0.964,4.09168 -0.006,1.34401 -0.0164,2.688 -0.0309,4.03195 -0.004,0.68498 -0.008,1.36996 -0.012,2.0757 -0.0104,1.69743 -0.0261,3.39482 -0.0429,5.0922 -4.17163,0.95572 -4.17163,0.95572 -6.14767,0 -1.22267,0.2891 -1.22267,0.2891 -2.47005,0.58405 -2.79939,0.26548 -2.79939,0.26548 -5.26944,-1.27429 -2.59625,-2.51139 -2.76021,-3.17214 -3.12872,-6.79624 0.0763,-2.70245 0.3808,-3.64589 1.81137,-6.10599 4.51302,-2.63577 9.17553,-2.19166 14.32628,-1.69906 z"
     fill="#0a0e13"
     id="path17"
     style="opacity:1;stroke-width:0.863765" />
  <path
     d="m 155.05956,43.178699 c 2.25049,1.38049 2.25049,1.38049 3.51296,3.39812 0.27445,2.70787 0.27445,2.70787 0,5.09717 -0.87824,0.84953 -0.87824,0.84953 -3.07727,0.9325 -1.32966,-0.0148 -1.32966,-0.0148 -2.68618,-0.0299 -0.8887,-0.008 -1.7774,-0.0153 -2.69304,-0.0232 -1.03078,-0.0148 -1.03078,-0.0148 -2.08239,-0.0299 0.28982,0.56069 0.57964,1.12138 0.87824,1.69906 2.60837,0 5.21675,0 7.90416,0 0.28982,1.40173 0.57964,2.80345 0.87824,4.24765 -3.28085,1.5868 -6.96579,1.3053 -10.53888,0.84953 -2.74449,-1.59287 -2.74449,-1.59287 -4.39119,-4.24765 -0.59249,-2.95634 -0.62293,-5.54222 0,-8.49529 3.10105,-4.06408 7.43058,-4.2585 12.29535,-3.39812 z"
     fill="#101419"
     id="path18"
     style="opacity:1;stroke-width:0.863765" />
  <path
     d="m 302.60377,43.178699 c 2.25049,1.38049 2.25049,1.38049 3.51296,3.39812 0.27445,2.70787 0.27445,2.70787 0,5.09717 -0.87824,0.84953 -0.87824,0.84953 -3.07727,0.9325 -1.32966,-0.0148 -1.32966,-0.0148 -2.68618,-0.0299 -0.8887,-0.008 -1.7774,-0.0153 -2.69303,-0.0232 -1.03079,-0.0148 -1.03079,-0.0148 -2.08239,-0.0299 0.28982,0.56069 0.57964,1.12138 0.87824,1.69906 2.60837,0 5.21674,0 7.90415,0 0.28982,1.40173 0.57964,2.80345 0.87824,4.24765 -3.27855,1.58569 -6.96837,1.31039 -10.53887,0.84953 -2.7445,-1.64597 -2.7445,-1.64597 -4.3912,-4.24765 -0.90622,-4.03963 -0.59077,-6.74249 1.70159,-10.24744 3.60209,-2.20438 6.43709,-2.44862 10.59376,-1.64597 z"
     fill="#0b1015"
     id="path19"
     style="opacity:1;stroke-width:0.863765" />
  <path
     d="m 57.574993,43.178699 c 2.14071,1.32739 2.14071,1.32739 3.51296,3.39812 0.62353,4.22207 0.69484,5.81859 -1.81137,9.34482 -3.26316,2.1491 -4.85293,2.36833 -8.72751,1.69906 -2.5737,-1.69502 -4.07961,-2.9125 -4.78228,-5.92348 -0.17564,-3.02978 0.11974,-4.77918 2.03779,-7.19113 3.54592,-2.52206 5.45979,-2.26198 9.77041,-1.32739 z"
     fill="#14171b"
     id="path20"
     style="opacity:1;stroke-width:0.863765" />
  <path
     d="m 192.82385,43.178699 c 1.46325,-0.0363 2.9279,-0.0345 4.3912,0 1.46089,1.41313 1.19483,3.21341 1.37225,5.15027 0.0736,0.78081 0.14717,1.56161 0.22299,2.36608 0.0532,0.60339 0.10642,1.20679 0.16124,1.82847 1.44909,0 2.89819,0 4.39119,0 0.28982,-3.08379 0.57964,-6.16758 0.87824,-9.34482 1.4491,0 2.89819,0 4.3912,0 0.87824,0.84953 0.87824,0.84953 0.96401,4.09168 -0.006,1.34401 -0.0164,2.688 -0.0309,4.03195 -0.004,0.68498 -0.008,1.36996 -0.012,2.0757 -0.0104,1.69743 -0.0261,3.39482 -0.0429,5.0922 -1.73891,0.28034 -3.47783,0.56069 -5.26944,0.84953 0,-0.56069 0,-1.12138 0,-1.69906 -0.86945,0.56069 -1.73891,1.12138 -2.63471,1.69906 -3.31906,-0.0683 -4.7875,-0.39255 -7.1803,-2.66142 -1.96582,-2.98875 -1.96815,-4.71604 -1.82166,-8.22318 0.0317,-0.98668 0.0634,-1.97336 0.0961,-2.98994 0.0611,-1.12193 0.0611,-1.12193 0.1235,-2.26652 z"
     fill="#0b0f15"
     id="path21"
     style="opacity:1;stroke-width:0.863765" />
  <path
     d="m 22.445418,19.391879 c 7.146507,-0.0198 14.293005,-0.0348 21.439535,-0.044 3.31947,-0.004 6.63892,-0.0104 9.95838,-0.0201 3.21168,-0.009 6.42334,-0.0143 9.63503,-0.0165 1.21691,-0.002 2.43383,-0.005 3.65073,-0.009 7.40404,-0.027 14.69536,0.20575 22.06252,0.93935 -0.28982,0.56069 -0.57964,1.12138 -0.87824,1.69906 1.44909,0.28035 2.89819,0.56069 4.39119,0.84953 0,0.28035 0,0.56069 0,0.84953 -0.50576,-0.0257 -1.01153,-0.0515 -1.53263,-0.078 -22.89472,-1.10181 -45.81105,-0.85508 -68.726515,-0.77155 0,-1.12138 0,-2.24276 0,-3.39812 z"
     fill="#05060a"
     id="path22"
     style="opacity:1;stroke-width:0.863765" />
  <path
     d="m 223.56223,37.231999 c 1.47143,0.24301 2.9367,0.52485 4.3912,0.84953 0,1.68207 0,3.36413 0,5.09717 1.44909,0 2.89819,0 4.39119,0 0,1.68207 0,3.36414 0,5.09718 -1.44909,0 -2.89819,0 -4.39119,0 0,1.96241 0,3.92482 0,5.9467 1.15927,0 2.31855,0 3.51295,0 0.0375,1.41542 0.0357,2.83219 0,4.24765 -0.28982,0.28034 -0.57963,0.56069 -0.87824,0.84953 -3.01894,-0.21238 -3.01894,-0.21238 -6.14767,-0.84953 -1.8758,-2.72172 -1.95964,-3.4146 -1.86626,-6.53076 0.0159,-0.68662 0.0317,-1.37325 0.048,-2.08068 0.0306,-0.78354 0.0306,-0.78354 0.0618,-1.58291 -0.86946,0 -1.73891,0 -2.63472,0 0,-1.68207 0,-3.36414 0,-5.09718 0.86946,0 1.73892,0 2.63472,0 -0.0181,-0.82351 -0.0362,-1.64702 -0.0549,-2.49549 0.0549,-2.60168 0.0549,-2.60168 0.93313,-3.45121 z"
     fill="#0c0e14"
     id="path23"
     style="opacity:1;stroke-width:0.863765" />
  <path
     d="m 49.670843,26.188119 c 0,0.56069 0,1.12138 0,1.69906 2.31855,0 4.6371,0 7.02591,0 0,0.28034 0,0.56069 0,0.84953 -0.60568,0.0734 -1.21135,0.14674 -1.83538,0.22233 -6.72653,0.97287 -12.74309,2.36456 -17.32808,7.52298 -3.9609,5.49726 -6.431837,10.91486 -5.427242,17.74056 1.505572,5.04343 3.582332,9.81741 6.147672,14.442 0.58803,1.13147 1.17398,2.26397 1.75648,3.39812 -5.75254,-4.08918 -10.061353,-9.19972 -11.417109,-16.14106 -0.837781,-8.31649 0.858653,-14.99245 6.367239,-21.50371 3.69513,-3.80544 9.02248,-8.22981 14.71051,-8.22981 z"
     fill="#c79460"
     id="path24"
     style="opacity:1;stroke-width:0.863765" />
  <path
     d="m 281.63581,43.125609 c 0.79926,0.008 1.59853,0.0153 2.42202,0.0232 0.6136,0.01 1.2272,0.0197 1.85939,0.0299 0.28982,1.12138 0.57964,2.24276 0.87824,3.39812 -2.68094,0.83356 -4.34497,0.83356 -7.02591,0 1.41948,2.74616 4.18915,3.12063 7.02591,4.24765 0.87824,0.84952 0.87824,0.84952 1.15269,3.29192 -0.27445,2.65478 -0.27445,2.65478 -1.59181,4.24765 -3.26342,1.42053 -5.64514,1.23028 -9.22151,0.95572 -0.86946,-0.56069 -1.73891,-1.12138 -2.63472,-1.69906 0.28982,-1.12138 0.57964,-2.24276 0.87824,-3.39812 2.31855,0 4.63711,0 7.02592,0 -0.97814,-0.38547 -1.95628,-0.77095 -2.96406,-1.1681 -3.18362,-1.38049 -3.18362,-1.38049 -4.9401,-3.07954 0.21956,-3.02645 0.21956,-3.02645 0.87824,-5.94671 2.21734,-1.07242 3.78697,-0.93326 6.25746,-0.90262 z"
     fill="#090c13"
     id="path25"
     style="opacity:1;stroke-width:0.863765" />
  <path
     d="m 172.62435,43.178699 c 0.86945,0.56069 1.73891,1.12138 2.63471,1.69906 -0.28981,1.12138 -0.57963,2.24276 -0.87823,3.39812 -2.54017,0.70204 -4.29233,0.84953 -7.02592,0.84953 -0.28982,1.40172 -0.57964,2.80344 -0.87824,4.24764 2.60837,0 5.21674,0 7.90416,0 0.28981,1.12138 0.57963,2.24276 0.87823,3.39812 -2.02017,1.80381 -3.30268,2.51321 -6.03789,2.97335 -2.93563,-0.45434 -4.81021,-1.26595 -7.00876,-3.23551 -1.64979,-2.35838 -1.67091,-4.46223 -1.45459,-7.24755 1.54052,-6.29052 6.22466,-6.69892 11.86653,-6.08276 z"
     fill="#0c1015"
     id="path26"
     style="opacity:1;stroke-width:0.863765" />
  <path
     d="m 97.974003,8.3479985 c 0.57964,0.28035 1.15928,0.56069 1.75648,0.84953 3.001827,8.7111105 1.947587,19.1484305 1.967457,28.2532805 0.009,2.40454 0.036,4.80851 0.0635,7.21291 0.006,1.53258 0.0103,3.06516 0.0137,4.59774 0.0108,0.71675 0.0217,1.43349 0.0329,2.17196 -0.02,5.04658 -0.02,5.04658 -2.955747,7.88634 0,-11.77448 0,-23.54895 0,-35.68023 -3.76765,-0.28034 -7.53529,-0.56069 -11.41711,-0.84953 0.28982,-0.56069 0.57964,-1.12138 0.87824,-1.69906 3.18801,0 6.37602,0 9.66063,0 0,-4.20517 0,-8.41034 0,-12.7429405 z"
     fill="#020105"
     id="path27"
     style="opacity:1;stroke-width:0.863765" />
  <path
     d="m 66.192713,42.116789 c 3.10699,0.23572 4.27602,0.48817 6.31235,2.76097 0.16467,2.65478 0.16467,2.65478 0,5.09718 0.28982,0.28034 0.57964,0.56069 0.87824,0.84953 0.40466,3.71864 0.40466,3.71864 -1.07379,5.65136 -2.01834,1.48036 -3.17563,1.40938 -5.67768,1.30416 -0.70983,-0.023 -1.41966,-0.046 -2.151,-0.0697 -0.54001,-0.0296 -1.08003,-0.0591 -1.6364,-0.0896 -0.0236,-2.38936 -0.0411,-4.77849 -0.0549,-7.1679 -0.007,-0.6817 -0.0147,-1.3634 -0.0223,-2.06575 -0.008,-1.73628 0.0313,-3.47262 0.0772,-5.20835 0.87824,-0.84953 0.87824,-0.84953 3.34828,-1.06191 z"
     fill="#0e1014"
     id="path28"
     style="opacity:1;stroke-width:0.863765" />
  <path
     d="m 177.89378,43.178699 c 4.09845,0 8.1969,0 12.29535,0 0,1.40173 0,2.80345 0,4.24765 -2.02873,0.56069 -4.05746,1.12138 -6.14767,1.69906 -0.28982,3.08379 -0.57964,6.16758 -0.87824,9.34482 -1.4491,0.28034 -2.89819,0.56069 -4.3912,0.84953 -0.87824,-0.84953 -0.87824,-0.84953 -0.97794,-2.34969 0.005,-0.63618 0.009,-1.27236 0.0139,-1.92782 0.003,-0.68718 0.006,-1.37435 0.009,-2.08235 0.007,-0.72221 0.0147,-1.44443 0.0223,-2.18853 0.004,-0.7255 0.008,-1.451 0.012,-2.19849 0.0104,-1.79808 0.0261,-3.59614 0.0429,-5.39418 z"
     fill="#0b0e13"
     id="path29"
     style="opacity:1;stroke-width:0.863765" />
  <path
     d="m 45.279643,6.6489485 c 1.70159,0.90262 1.70159,0.90262 2.63472,2.54858 0.38423,2.9733605 0.38423,2.9733605 0,5.9467105 -1.96129,2.26201 -3.17924,2.50906 -6.20257,2.86716 -2.57983,-0.31857 -2.57983,-0.31857 -4.22653,-1.2212 -1.55249,-2.58633 -1.31142,-4.67292 -0.98802,-7.5926705 1.95174,-3.4427 5.09333,-2.93092 8.7824,-2.54858 z"
     fill="#0e1616"
     id="path30"
     style="opacity:1;stroke-width:0.863765" />
  <path
     d="m 17.175982,6.6489485 c 1.701589,0.90262 1.701589,0.90262 2.634718,2.54858 0.320812,2.8963605 0.539294,4.9954405 -0.933129,7.5926705 -2.685008,1.42429 -4.855021,1.21295 -7.849265,0.90263 -1.7015887,-0.90263 -1.7015887,-0.90263 -2.6347177,-2.54859 -0.320812,-2.89636 -0.539294,-4.99544 0.933129,-7.5926705 2.6850077,-1.42429 4.8550207,-1.21295 7.8492647,-0.90262 z"
     fill="#13060b"
     id="path31"
     style="opacity:1;stroke-width:0.863765" />
  <path
     d="m 26.836615,80.557989 c 14.490948,0 28.981898,0 43.911968,0 0.43473,0.84103 0.43473,0.84103 0.87824,1.69906 -2.41644,0.77915 -3.84203,0.95687 -6.33079,0.95945 -0.74169,0.003 -1.48339,0.005 -2.24756,0.008 -0.79868,-0.002 -1.59735,-0.003 -2.42023,-0.005 -0.82407,8.2e-4 -1.64815,0.002 -2.49719,0.002 -1.74372,5.7e-4 -3.48743,-9.9e-4 -5.23114,-0.005 -2.66364,-0.005 -5.32715,-5e-5 -7.99078,0.005 -1.69473,-5.6e-4 -3.38945,-0.002 -5.08418,-0.003 -1.19268,0.003 -1.19268,0.003 -2.40945,0.005 -3.63892,-0.013 -7.031073,-0.0739 -10.578888,-0.96756 0,-0.56069 0,-1.12138 0,-1.69906 z"
     fill="#050509"
     id="path32"
     style="opacity:1;stroke-width:0.863765" />
  <path
     d="m 49.670843,23.639529 c 10.08837,-0.34307 16.88776,-0.39467 24.81026,6.21218 4.3389,3.97786 7.83635,7.35375 8.56283,13.32699 -0.57964,0 -1.15927,0 -1.75648,0 -0.28982,0.56069 -0.57964,1.12138 -0.87824,1.69906 -0.26604,-0.56397 -0.53209,-1.12795 -0.80619,-1.70901 -3.67772,-7.4981 -8.4841,-12.93466 -16.70713,-15.89549 -4.60817,-1.21569 -9.35455,-1.57698 -14.10329,-1.93467 0.28981,-0.56069 0.57963,-1.12138 0.87824,-1.69906 z"
     fill="#1b110e"
     id="path33"
     style="opacity:1;stroke-width:0.863765" />
  <path
     d="m 61.087953,22.789999 c 0,0.28035 0,0.56069 0,0.84953 -5.65147,0.42052 -5.65147,0.42052 -11.41711,0.84953 2.60837,0.28034 5.21674,0.56069 7.90415,0.84953 0,0.28034 0,0.56069 0,0.84953 -0.89323,0.0181 -0.89323,0.0181 -1.80451,0.0365 -8.05116,0.39911 -14.39282,2.45008 -20.04169,8.19331 -3.066069,3.66698 -4.740512,7.71124 -6.25746,12.15889 -0.289819,-1.12138 -0.579638,-2.24276 -0.878239,-3.39812 -0.579638,0 -1.159276,0 -1.756479,0 1.831541,-7.08667 6.976288,-12.94625 13.173588,-16.99058 6.8163,-3.81166 13.36059,-3.78535 21.07775,-3.39812 z"
     fill="#1d100b"
     id="path34"
     style="opacity:1;stroke-width:0.863765" />
  <path
     d="m 31.227812,6.6489485 c 1.701588,0.95572 1.701588,0.95572 2.634721,2.54858 0.47485,3.0840705 0.40732,4.5213205 -1.427142,7.1148105 -2.681141,1.7745 -4.166967,1.83981 -7.355255,1.38049 -1.646699,-0.90263 -1.646699,-0.90263 -2.634718,-2.54859 -0.320812,-2.89636 -0.539294,-4.99544 0.933129,-7.5926705 2.685008,-1.42429 4.855021,-1.21295 7.849265,-0.90262 z"
     fill="#0f0e0b"
     id="path35"
     style="opacity:1;stroke-width:0.863765" />
  <path
     d="m 264.83948,43.178699 c 2.52494,0.84953 2.52494,0.84953 4.3912,1.69906 -0.98802,1.64596 -0.98802,1.64596 -2.63472,3.39812 -2.79939,0.63714 -2.79939,0.63714 -5.26944,0.84953 0.50457,3.33929 0.50457,3.33929 2.63472,5.9467 -0.28982,0.56069 -0.57964,1.12138 -0.87824,1.69906 -0.57964,0 -1.15928,0 -1.75648,0 0,0.56069 0,1.12138 0,1.69906 -2.22988,-0.29752 -3.35569,-0.71371 -5.04987,-2.17692 -1.56461,-2.95124 -1.79258,-5.66517 -1.0978,-8.86696 2.81195,-3.84004 4.84071,-4.92757 9.66063,-4.24765 z"
     fill="#0a0e14"
     id="path36"
     style="opacity:1;stroke-width:0.863765" />
  <path
     d="m 123.44294,36.382469 c 1.71982,-0.0229 3.43973,-0.0394 5.15966,-0.0531 0.95776,-0.01 1.91552,-0.0197 2.9023,-0.0299 2.47691,0.083 2.47691,0.083 4.23339,0.93249 0.18688,3.79603 -0.35886,6.64555 -1.75648,10.19435 -2.02873,0 -4.05746,0 -6.14767,0 -0.28982,-1.96241 -0.57964,-3.92483 -0.87824,-5.94671 -0.57964,0.56069 -1.15928,1.12138 -1.75648,1.69906 -1.37225,-1.00881 -1.37225,-1.00881 -2.63472,-2.54859 0.36022,-2.22005 0.36022,-2.22005 0.87824,-4.24764 z"
     fill="#05080e"
     id="path37"
     style="opacity:1;stroke-width:0.863765" />
  <path
     d="m 36.497243,0.7022385 c 0,0.28035 0,0.56069 0,0.84953 -5.651465,0.42052 -5.651465,0.42052 -11.417107,0.84953 0,0.56069 0,1.12138 0,1.69906 -1.224372,0.0624 -1.224372,0.0624 -2.473479,0.1261 -8.178746,0.31217 -8.178746,0.31217 -15.9695477,2.42249 -2.032075,2.86713 -2.094201,5.7278805 -2.305378,9.1324405 -0.06566,0.99434 -0.131324,1.98869 -0.198976,3.01317 -0.04302,0.75781 -0.08604,1.51561 -0.130364,2.29638 -0.289819,-0.84103 -0.579638,-1.68206 -0.878239,-2.54858 -0.579638,0 -1.159276,0 -1.756479,0 C 0.85313326,9.2147185 0.85313326,9.2147185 4.0023913,4.9498885 c 3.819387,-2.91052 6.4706177,-3.85099 11.3073317,-4.03527 1.14003,-0.0471 2.280061,-0.0942 3.454637,-0.14269 5.911152,-0.1343 11.820843,-0.13732 17.732883,-0.0697 z"
     fill="#0c0e15"
     id="path38"
     style="opacity:1;stroke-width:0.863765" />
  <path
     d="m 76.018023,49.974939 c 0.28982,0 0.57963,0 0.87824,0 0.45253,5.83649 0.72171,10.64216 -2.96406,15.5039 -4.24423,4.42129 -9.18612,7.93315 -15.51671,8.53844 -0.91134,0.003 -1.82269,0.007 -2.76165,0.01 -0.91814,0.0142 -1.83627,0.0285 -2.78223,0.0431 -0.76644,-0.10184 -1.53287,-0.20369 -2.32254,-0.30862 -0.57963,-0.84103 -1.15927,-1.68206 -1.75647,-2.54858 0.74266,-0.0219 1.48532,-0.0438 2.25048,-0.0664 7.92832,-0.38346 13.59883,-1.21795 19.10171,-6.99534 3.4888,-4.29181 5.19177,-8.77129 5.87323,-14.17652 z"
     fill="#180d0b"
     id="path39"
     style="opacity:1;stroke-width:0.863765" />
  <path
     d="m 59.331473,28.736709 c 6.83108,1.60605 12.2219,4.43713 16.11706,10.27399 3.37514,6.29472 4.11481,12.53808 2.32596,19.45953 -2.41955,-2.65708 -2.93081,-4.34762 -3.01894,-7.85815 -0.42992,-5.99809 -2.07642,-9.81359 -6.47702,-14.07032 -2.95254,-1.96002 -5.61351,-3.1816 -8.94706,-4.40694 0,-1.1327 0,-2.26541 0,-3.39811 z"
     fill="#170d0a"
     id="path40"
     style="opacity:1;stroke-width:0.863765" />
  <path
     d="m 74.261543,78.009399 c 5.74286,2.99122 9.22939,7.8255 13.17359,12.74294 3.76475,-0.71284 5.38869,-2.27976 7.90415,-5.09718 1.15842,-2.26427 1.15842,-2.26427 1.75648,-4.24764 0.57964,0.28034 1.15928,0.56069 1.75648,0.84953 -0.22192,3.64935 -0.48902,5.50085 -2.96406,8.336 -4.29944,3.46574 -4.29944,3.46574 -7.07394,3.8627 -2.94751,-0.39864 -3.87174,-1.40358 -5.88009,-3.49103 -0.5819,-0.59135 -1.1638,-1.1827 -1.76334,-1.79197 -4.27455,-4.74034 -4.27455,-4.74034 -4.27455,-6.9157 -0.86946,0 -1.73892,0 -2.63472,0 0,-1.40173 0,-2.80345 0,-4.24765 z"
     fill="#070c13"
     id="path41"
     style="opacity:1;stroke-width:0.863765" />
  <path
     d="m 54.501153,28.524319 c 0.84229,-0.0219 1.68457,-0.0438 2.55238,-0.0664 2.598,0.31792 3.33282,0.86548 4.91266,2.82734 -1.08343,0.0181 -1.08343,0.0181 -2.18874,0.0365 -7.46196,0.30839 -13.75832,1.3644 -19.46535,6.32501 -2.23961,2.43719 -3.66014,4.99208 -4.69309,8.08048 -0.57964,0 -1.15928,0 -1.75648,0 -0.658683,-1.38048 -0.658683,-1.38048 -0.878243,-3.39812 4.599773,-8.04315 11.831233,-13.65373 21.516863,-13.80485 z"
     fill="#160d0c"
     id="path42"
     style="opacity:1;stroke-width:0.863765" />
  <path
     d="m 135.73829,38.081529 c 3.40318,1.48667 3.40318,1.48667 4.3912,3.39811 0.20248,5.97364 0.20248,5.97364 -0.5489,9.02625 -0.44467,2.72419 0.39411,4.58727 1.42714,7.11481 -2.63472,1.69906 -2.63472,1.69906 -5.26944,1.69906 -0.38038,-0.96369 -0.76077,-1.92737 -1.15269,-2.92026 -0.7336,-1.49809 -0.7336,-1.49809 -1.48203,-3.02645 -0.86945,-0.28034 -1.73891,-0.56069 -2.63471,-0.84953 0,-0.56069 0,-1.12137 0,-1.69905 2.08582,-0.1062 2.08582,-0.1062 4.39119,0 0.57964,0.56068 1.15928,1.12137 1.75648,1.69905 0.28982,-1.96241 0.57964,-3.92482 0.87824,-5.9467 -1.15927,0.28034 -2.31855,0.56069 -3.51296,0.84953 -0.17233,-3.58398 0.17363,-6.09122 1.75648,-9.34482 z"
     fill="#0d1015"
     id="path43"
     style="opacity:1;stroke-width:0.863765" />
  <path
     d="m 4.0023913,67.815049 c 0.289819,0 0.579638,0 0.87824,0 0.03283,0.52236 0.06566,1.04472 0.09949,1.58291 0.05774,0.68663 0.115475,1.37325 0.174962,2.08068 0.05094,0.68006 0.101889,1.36011 0.154378,2.06078 0.555975,2.37699 0.98697,3.11061 3.084129,4.46998 5.1646787,1.08492 10.4852017,1.11491 15.7534187,1.32739 0.851909,0.0367 1.703818,0.0734 2.581543,0.11117 2.085145,0.0894 4.170369,0.17619 6.25574,0.2605 0,0.28034 0,0.56069 0,0.84953 -2.028733,0 -4.057465,0 -6.147675,0 0,0.56069 0,1.12138 0,1.69906 1.449095,0 2.89819,0 4.391197,0 0,0.28034 0,0.56069 0,0.84953 -2.927999,-0.0945 -5.85512,-0.20516 -8.782394,-0.31858 -0.820776,-0.0263 -1.641553,-0.0526 -2.487201,-0.0796 -11.3504647,-0.46068 -11.3504647,-0.46068 -15.9729787,-3.20233 -1.331035,-2.31344 -0.903203,-4.16416 -0.586636,-6.75309 0.105286,-0.92317 0.210571,-1.84633 0.319048,-2.79747 0.09396,-0.70634 0.187929,-1.41268 0.284741,-2.14042 z"
     fill="#1c1d21"
     id="path44"
     style="opacity:1;stroke-width:0.863765" />
  <path
     d="m 212.14512,43.178699 c 1.46325,-0.0363 2.9279,-0.0345 4.39119,0 0.87824,0.84953 0.87824,0.84953 0.96401,4.09168 -0.006,1.34401 -0.0164,2.688 -0.0309,4.03195 -0.004,0.68498 -0.008,1.36996 -0.012,2.0757 -0.0104,1.69743 -0.0261,3.39482 -0.0429,5.0922 -1.45449,0.32468 -2.91976,0.60652 -4.39119,0.84953 -0.87824,-0.84953 -0.87824,-0.84953 -0.97794,-2.34969 0.005,-0.63618 0.009,-1.27236 0.0139,-1.92782 0.003,-0.68718 0.006,-1.37435 0.009,-2.08235 0.007,-0.72221 0.0147,-1.44443 0.0223,-2.18853 0.004,-0.7255 0.008,-1.451 0.012,-2.19849 0.0104,-1.79808 0.0261,-3.59614 0.0429,-5.39418 z"
     fill="#090c11"
     id="path45"
     style="opacity:1;stroke-width:0.863765" />
  <path
     d="m 75.139783,71.213169 c 1.0594,1.98122 1.9018,3.81984 2.63471,5.9467 1.6833,0.99112 1.6833,0.99112 3.51296,1.69906 0.57964,0.28034 1.15928,0.56069 1.75648,0.84953 0,0.56069 0,1.12138 0,1.69906 0.57964,0 1.15928,0 1.75648,0 0,0.84103 0,1.68207 0,2.54858 0.57964,0 1.15928,0 1.75648,0 0,0.56069 0,1.12138 0,1.69906 0.86946,0.28035 1.73891,0.56069 2.63472,0.84953 0,0.56069 0,1.12138 0,1.69906 0.57963,0 1.15927,0 1.75648,0 -0.28982,1.12138 -0.57964,2.24276 -0.87824,3.39812 -4.08618,-0.70981 -5.83408,-3.10675 -8.34328,-6.10599 -0.41548,-0.4802 -0.83096,-0.9604 -1.25904,-1.45515 -2.58386,-3.02213 -4.89089,-6.13189 -7.08423,-9.42945 0.57964,-1.12138 1.15927,-2.24275 1.75648,-3.39811 z"
     fill="#2c485e"
     id="path46"
     style="opacity:1;stroke-width:0.863765" />
  <path
     d="m 56.696753,45.727289 c 1.75648,1.69906 1.75648,1.69906 2.03093,4.19455 -0.27445,2.60168 -0.27445,2.60168 -1.31736,4.19455 -2.16712,1.30114 -3.47581,1.31951 -5.98301,0.95572 -1.5918,-0.95572 -1.5918,-0.95572 -2.63471,-2.54859 -0.38423,-2.54858 -0.38423,-2.54858 0,-5.09717 2.52472,-2.80399 4.35734,-2.87277 7.90415,-1.69906 z"
     fill="#f6f8f9"
     id="path47"
     style="opacity:1;stroke-width:0.863765" />
  <path
     d="m 69.870343,75.460809 c 1.20813,1.0956 2.37798,2.23163 3.51296,3.39812 0,0.56069 0,1.12138 0,1.69906 -13.33168,0 -26.66335,0 -40.399013,0 0,-0.28035 0,-0.56069 0,-0.84953 2.658733,-0.20741 2.658733,-0.20741 5.317463,-0.41481 2.05553,-0.32762 2.05553,-0.32762 3.46493,-2.98331 0.90569,0.42052 1.81137,0.84104 2.7445,1.2743 7.00965,2.51263 14.83872,2.23843 21.73642,-0.42477 1.21783,-0.54544 2.43018,-1.10367 3.62274,-1.69906 z"
     fill="#e3e3e3"
     id="path48"
     style="opacity:1;stroke-width:0.863765" />
  <path
     d="m 177.01554,44.028229 c 0.28982,0 0.57964,0 0.87824,0 0,4.48552 0,8.97103 0,13.59247 -0.86945,-0.28035 -1.73891,-0.56069 -2.63472,-0.84953 -0.60379,-1.75215 -0.60379,-1.75215 -0.87823,-3.39812 -1.46721,0.23654 -1.46721,0.23654 -2.96406,0.47786 -3.18362,0.37167 -3.18362,0.37167 -4.9401,-0.47786 0,-1.40172 0,-2.80344 0,-4.24764 0.65209,-0.12265 1.30419,-0.2453 1.97604,-0.37167 3.95726,-0.75743 3.95726,-0.75743 7.68459,-2.17692 0.28982,-0.84103 0.57964,-1.68207 0.87824,-2.54859 z"
     fill="#ebedf0"
     id="path49"
     style="opacity:1;stroke-width:0.863765" />
  <path
     d="m 50.823523,0.6491485 c 1.25961,0.004 2.51922,0.008 3.77884,0.0116 3.04013,0.009 6.08021,0.0238 9.12031,0.0415 0.43472,0.84104 0.43472,0.84104 0.87823,1.69906 -13.76894,0.66515 -27.49144,0.97182 -41.277246,0.84953 5.328741,-5.15454 19.990916,-2.64671 27.499866,-2.60168 z"
     fill="#02040e"
     id="path50"
     style="opacity:1;stroke-width:0.863765" />
  <path
     d="m 81.287453,43.178699 c 0.86946,0 1.73892,0 2.63472,0 2.01918,6.8991 1.088,13.82552 -1.75648,20.3887 -0.57964,0.56069 -1.15927,1.12138 -1.75648,1.69906 -0.86945,0 -1.73891,0 -2.63472,0 0.62493,-1.44552 0.62493,-1.44552 1.26247,-2.92025 2.16838,-6.15397 2.02887,-12.72885 2.25049,-19.16751 z"
     fill="#211a18"
     id="path51"
     style="opacity:1;stroke-width:0.863765" />
  <path
     d="m 146.27717,51.673989 c 0.34982,0.41724 0.69964,0.83447 1.06006,1.26434 2.02447,1.65111 3.08494,1.55316 5.6914,1.44354 1.06475,-0.0345 1.06475,-0.0345 2.151,-0.0697 0.54002,-0.0296 1.08003,-0.0591 1.63641,-0.0896 0.28982,1.40173 0.57964,2.80345 0.87824,4.24765 -3.25816,1.57582 -6.99201,1.35582 -10.53888,0.84953 -2.01404,-1.22999 -2.93716,-2.37232 -4.39119,-4.24765 1.15927,-1.12138 2.31855,-2.24276 3.51296,-3.39812 z"
     fill="#0b0e14"
     id="path52"
     style="opacity:1;stroke-width:0.863765" />
  <path
     d="m 97.974003,8.3479985 c 0.57964,0.28035 1.15928,0.56069 1.75648,0.84953 0.758967,2.2024705 1.032637,3.6872805 1.156117,5.9566605 0.0552,0.96506 0.0552,0.96506 0.11149,1.94961 0.0345,0.66746 0.0691,1.33492 0.10464,2.02261 0.0379,0.67731 0.0759,1.35463 0.11492,2.05247 0.093,1.66958 0.18159,3.33939 0.26931,5.00924 -0.57964,0.28034 -1.15928,0.56069 -1.756477,0.84953 -0.28982,-1.12138 -0.57964,-2.24276 -0.87824,-3.39812 -3.76765,-0.28034 -7.53529,-0.56069 -11.41711,-0.84953 0.28982,-0.56069 0.57964,-1.12138 0.87824,-1.69906 3.18801,0 6.37602,0 9.66063,0 0,-4.20517 0,-8.41034 0,-12.7429405 z"
     fill="#080b11"
     id="path53"
     style="opacity:1;stroke-width:0.863765" />
  <path
     d="m 33.862533,10.896589 c 0.86945,0 1.73891,0 2.63471,0 0.27171,0.82351 0.54342,1.64703 0.82335,2.49549 0.66548,2.46632 0.66548,2.46632 1.81137,3.45122 2.34542,0.11991 4.67603,0.0361 7.02592,0 0,0.28034 0,0.56069 0,0.84953 4.6371,0.28034 9.27421,0.56069 14.05183,0.84953 0,0.28034 0,0.56068 0,0.84952 -9.85385,0 -19.70769,0 -29.860141,0 0,-0.84103 0,-1.68206 0,-2.54858 0.87824,-0.84953 1.756479,-1.69906 2.634718,-2.54859 0.627483,-1.78684 0.627483,-1.78684 0.878243,-3.39812 z"
     fill="#e7ebf0"
     id="path54"
     style="opacity:1;stroke-width:0.863765" />
  <path
     d="m 89.191613,20.241409 c -0.28982,0.56069 -0.57964,1.12138 -0.87824,1.69906 2.17364,0.42052 2.17364,0.42052 4.39119,0.84953 0,0.28035 0,0.56069 0,0.84953 -12.17239,-0.42052 -12.17239,-0.42052 -24.5907,-0.84953 -0.28982,-0.84103 -0.57964,-1.68207 -0.87824,-2.54859 6.82145,-2.19948 14.9283,-0.65409 21.95599,0 z"
     fill="#212124"
     id="path55"
     style="opacity:1;stroke-width:0.863765" />
  <path
     d="m 20.688939,10.896589 c 0.980064,1.42204 1.937488,2.86191 2.799388,4.35384 2.309588,2.31112 4.519666,2.20733 7.739485,2.4424 -0.289819,0.56069 -0.579638,1.12137 -0.87824,1.69905 -1.691297,0.26216 -1.691297,0.26216 -3.787407,0.37167 -3.28447,0.27319 -5.219867,0.69539 -7.629704,3.02645 -0.289819,-0.56069 -0.579638,-1.12138 -0.87824,-1.69906 -2.03889,-0.346 -4.089854,-0.63238 -6.147675,-0.84953 0.489069,-0.33291 0.978139,-0.66581 1.482029,-1.00881 4.600409,-3.48512 4.600409,-3.48512 7.300364,-8.33601 z"
     fill="#f7f9fb"
     id="path56"
     style="opacity:1;stroke-width:0.863765" />
  <path
     d="m 32.106051,3.2508285 c 0,0.28034 0,0.56069 0,0.84953 -1.449095,0 -2.89819,0 -4.391197,0 0,0.56069 0,1.12138 0,1.69906 0.579638,0.28034 1.159276,0.56069 1.756479,0.84953 -2.028733,0.28034 -4.057466,0.56069 -6.147676,0.84953 -0.289819,1.96241 -0.579638,3.9248205 -0.878239,5.9467005 -0.869457,0 -1.738914,0 -2.634718,0 -0.199251,-0.77095 -0.398501,-1.5419 -0.60379,-2.33621 -1.32268,-3.1681405 -2.75986,-4.1578105 -5.543886,-6.1590805 6.195566,-1.0232 12.149891,-1.93778 18.443027,-1.69906 z"
     fill="#eceff2"
     id="path57"
     style="opacity:1;stroke-width:0.863765" />
  <path
     d="m 268.79156,43.072509 c 2.1956,0.10619 2.1956,0.10619 3.07383,0.95572 0.0643,2.43193 0.0811,4.84293 0.0549,7.2741 -0.004,0.68498 -0.008,1.36996 -0.012,2.0757 -0.0104,1.69743 -0.0261,3.39482 -0.0429,5.0922 -0.28981,0 -0.57963,0 -0.87823,0 0,-3.36414 0,-6.72827 0,-10.19435 -1.73892,0.28034 -3.47783,0.56069 -5.26944,0.84953 0,1.40172 0,2.80344 0,4.24764 -1.6467,0.53096 -1.6467,0.53096 -3.51296,0.84953 -0.57964,-0.56069 -1.15927,-1.12138 -1.75648,-1.69906 0.32934,-2.23001 0.32934,-2.23001 0.87824,-4.24764 1.73892,0 3.47783,0 5.26944,0 0.92452,-2.23517 0.92452,-2.23517 0.87824,-3.39812 -0.57964,-0.28034 -1.15928,-0.56069 -1.75648,-0.84953 0.87824,-0.84953 0.87824,-0.84953 3.07384,-0.95572 z"
     fill="#23262b"
     id="path58"
     style="opacity:1;stroke-width:0.863765" />
  <path
     d="m 172.62435,43.178699 c 0.86945,0.56069 1.73891,1.12138 2.63471,1.69906 -0.28981,1.12138 -0.57963,2.24276 -0.87823,3.39812 -2.54017,0.70204 -4.29233,0.84953 -7.02592,0.84953 -0.57964,1.12138 -1.15928,2.24275 -1.75648,3.39811 -0.28982,-1.96241 -0.57964,-3.92482 -0.87824,-5.9467 -0.86945,-0.28035 -1.73891,-0.56069 -2.63472,-0.84953 3.3159,-3.2075 6.09225,-2.88996 10.53888,-2.54859 z"
     fill="#0f1318"
     id="path59"
     style="opacity:1;stroke-width:0.863765" />
  <path
     d="m 27.714854,21.940469 c 13.331669,0 26.663349,0 40.399009,0 -0.57964,0.84104 -1.15927,1.68207 -1.75648,2.54859 -1.11908,-0.20369 -1.11908,-0.20369 -2.26078,-0.41149 -8.14041,-1.18519 -15.58525,-0.94064 -23.20816,2.11055 0,-2.54859 0,-2.54859 0.87824,-3.39812 -4.6371,0 -9.274207,0 -14.051829,0 0,-0.28034 0,-0.56069 0,-0.84953 z"
     fill="#edf0ed"
     id="path60"
     style="opacity:1;stroke-width:0.863765" />
  <path
     d="m 293.82138,52.523519 c 0.86946,0.56069 1.73891,1.12138 2.63472,1.69906 2.00808,0.2048 2.00808,0.2048 4.11674,0.10619 0.70983,-0.0153 1.41966,-0.0307 2.151,-0.0465 0.54002,-0.0197 1.08003,-0.0394 1.63641,-0.0597 0.28982,1.40173 0.57964,2.80345 0.87824,4.24765 -2.21734,1.07242 -3.78697,0.93326 -6.25746,0.90262 -0.79926,-0.008 -1.59853,-0.0153 -2.42201,-0.0232 -0.61361,-0.01 -1.22721,-0.0197 -1.8594,-0.0299 -0.16303,-0.99873 -0.16303,-0.99873 -0.32934,-2.01763 -0.36551,-2.34944 -0.36551,-2.34944 -2.30538,-3.92908 0.57964,-0.28034 1.15928,-0.56069 1.75648,-0.84953 z"
     fill="#060a10"
     id="path61"
     style="opacity:1;stroke-width:0.863765" />
  <path
     d="m 240.24878,37.231999 c 4.05746,0 8.11493,0 12.29535,0 0,1.40172 0,2.80344 0,4.24764 -4.05747,0 -8.11493,0 -12.29535,0 -0.28982,-0.56069 -0.57964,-1.12137 -0.87824,-1.69905 0.28982,-0.84104 0.57964,-1.68207 0.87824,-2.54859 z"
     fill="#05090f"
     id="path62"
     style="opacity:1;stroke-width:0.863765" />
  <path
     d="m 22.445418,19.391879 c 6.376018,0 12.752035,0 19.321265,0 -0.86946,0.28035 -1.73891,0.56069 -2.63472,0.84953 0,0.56069 0,1.12138 0,1.69906 -8.259838,0.42052 -8.259838,0.42052 -16.686545,0.84953 0,-1.12138 0,-2.24276 0,-3.39812 z"
     fill="#07080f"
     id="path63"
     style="opacity:1;stroke-width:0.863765" />
  <path
     d="m 76.018023,62.717869 c 0.71357,1.38049 0.71357,1.38049 0.87824,3.39812 -2.96608,4.49495 -7.07895,7.53047 -12.29536,9.34482 -2.00005,-0.31525 -2.00005,-0.31525 -3.51295,-0.84953 2.55174,-2.65819 5.50397,-4.42682 8.64517,-6.37147 1.9085,-1.20005 1.9085,-1.20005 3.34828,-2.70787 1.18014,-1.11501 1.18014,-1.11501 2.93662,-1.11501 0,-0.56069 0,-1.12138 0,-1.69906 z"
     fill="#cea176"
     id="path64"
     style="opacity:1;stroke-width:0.863765" />
  <path
     d="m 41.766683,42.329169 c 0.57964,0 1.15928,0 1.75648,0 0.0473,2.23025 0.0822,4.45956 0.10978,6.69005 0.0147,0.63406 0.0294,1.26812 0.0446,1.92139 0.0155,1.66102 -0.0637,3.32226 -0.15438,4.98103 -0.57964,0.56069 -1.15928,1.12138 -1.75648,1.69906 -2.7445,-0.31857 -2.7445,-0.31857 -5.26944,-0.84953 0,-0.84103 0,-1.68207 0,-2.54859 2.17365,0.42052 2.17365,0.42052 4.3912,0.84953 -0.0102,-0.8487 -0.0204,-1.6974 -0.0309,-2.57182 -0.008,-1.09619 -0.0159,-2.19238 -0.024,-3.32179 -0.0102,-1.094 -0.0204,-2.188 -0.0309,-3.31515 0.0858,-2.68465 0.0858,-2.68465 0.964,-3.53418 z"
     fill="#16191e"
     id="path65"
     style="opacity:1;stroke-width:0.863765" />
  <path
     d="m 36.497243,0.7022385 c 0,0.28035 0,0.56069 0,0.84953 -5.651465,0.42052 -5.651465,0.42052 -11.417107,0.84953 0,0.56069 0,1.12138 0,1.69906 -7.390384,0.42052 -7.390384,0.42052 -14.930069,0.84953 0.289819,-0.56069 0.579638,-1.12138 0.878239,-1.69906 -0.579638,-0.56069 -1.1592757,-1.12138 -1.7564777,-1.69906 9.0990257,-0.70817 18.1000037,-0.95392 27.2254147,-0.84953 z"
     fill="#181a23"
     id="path66"
     style="opacity:1;stroke-width:0.863765" />
  <path
     d="m 49.670843,26.188119 c 0,0.56069 0,1.12138 0,1.69906 2.31855,0 4.6371,0 7.02591,0 0,0.28034 0,0.56069 0,0.84953 -0.60568,0.0734 -1.21135,0.14674 -1.83538,0.22233 -6.07988,0.87935 -10.55179,2.56525 -15.72941,5.72437 -0.86945,0.42052 -0.86945,0.42052 -1.75648,0.84953 -0.28981,-0.84103 -0.57963,-1.68207 -0.87824,-2.54859 3.70396,-3.23332 7.88856,-6.79623 13.1736,-6.79623 z"
     fill="#c39668"
     id="path67"
     style="opacity:1;stroke-width:0.863765" />
  <path
     d="m 301.78042,43.284889 c 2.57983,0.74334 2.57983,0.74334 3.78741,2.4955 0.18114,0.54316 0.36227,1.08633 0.5489,1.64596 -3.71451,2.05319 -6.25602,2.8445 -10.53887,2.54859 0.27445,-2.4424 0.27445,-2.4424 0.87824,-5.09718 2.63471,-1.69906 2.63471,-1.69906 5.32432,-1.59287 z"
     fill="#43474d"
     id="path68"
     style="opacity:1;stroke-width:0.863765" />
  <path
     d="m 73.383303,50.824469 c 0.32019,3.81993 0.32019,3.81993 -1.15269,5.78741 -1.48203,1.00882 -1.48203,1.00882 -4.11675,1.00882 0,-0.56069 0,-1.12138 0,-1.69906 -0.86946,0 -1.73891,0 -2.63472,0 0,-1.68207 0,-3.36413 0,-5.09717 5.92812,-0.95572 5.92812,-0.95572 7.90416,0 z"
     fill="#090a13"
     id="path69"
     style="opacity:1;stroke-width:0.863765" />
  <path
     d="m 76.896263,69.514109 c 0,0.56069 0,1.12138 0,1.69906 -0.86946,0.56069 -1.73892,1.12138 -2.63472,1.69906 0.43473,0.97244 0.43473,0.97244 0.87824,1.96453 0.87824,2.28311 0.87824,2.28311 0.87824,4.8317 -0.28982,-0.28035 -0.57964,-0.56069 -0.87824,-0.84953 -0.28982,1.12138 -0.57964,2.24276 -0.87824,3.39812 0.86945,0.28034 1.73891,0.56069 2.63472,0.84953 -2.60838,0 -5.21675,0 -7.90416,0 0.57964,-0.84104 1.15928,-1.68207 1.75648,-2.54859 0.86946,0 1.73891,0 2.63472,0 -1.58446,-2.77338 -2.48889,-4.1536 -5.26944,-5.94671 1.13044,-0.85444 2.26576,-1.70285 3.40318,-2.54858 0.63171,-0.47309 1.26343,-0.94617 1.91429,-1.43358 1.70845,-1.11501 1.70845,-1.11501 3.46493,-1.11501 z"
     fill="#05070c"
     id="path70"
     style="opacity:1;stroke-width:0.863765" />
  <path
     d="m 288.55194,45.727289 c 0.86946,0 1.73892,0 2.63472,0 -0.0768,1.22214 -0.17183,2.44323 -0.27445,3.66359 -0.0509,0.68006 -0.10189,1.36011 -0.15438,2.06078 -0.52148,2.22954 -1.29059,3.03275 -3.08413,4.46998 -0.16302,-0.78847 -0.32604,-1.57694 -0.49401,-2.3893 -1.35668,-2.90995 -1.60165,-3.15014 -4.44608,-4.30074 -0.97814,-0.31539 -1.95628,-0.63078 -2.96406,-0.95572 0,-0.56069 0,-1.12138 0,-1.69906 1.77249,0.27654 3.54498,0.55308 5.31746,0.82962 0.84569,0.01 0.84569,0.01 1.70845,0.0199 0.57964,-0.56069 1.15928,-1.12138 1.75648,-1.69906 z"
     fill="#d8dce0"
     id="path71"
     style="opacity:1;stroke-width:0.863765" />
  <path
     d="m 240.24878,45.727289 c 2.89819,0 5.79638,0 8.78239,0 0,1.40172 0,2.80345 0,4.24765 -0.87824,0.84953 -0.87824,0.84953 -2.69304,0.93249 -0.72341,-0.01 -1.44683,-0.0197 -2.19217,-0.0299 -0.72567,-0.008 -1.45135,-0.0153 -2.19902,-0.0232 -0.5604,-0.01 -1.12079,-0.0197 -1.69816,-0.0299 0,-1.68207 0,-3.36414 0,-5.09718 z"
     fill="#151a1f"
     id="path72"
     style="opacity:1;stroke-width:0.863765" />
  <path
     d="m 140.12949,43.178699 c 0.28982,0.56069 0.57964,1.12138 0.87824,1.69906 0.86946,0.28035 1.73891,0.56069 2.63472,0.84953 0,3.36414 0,6.72827 0,10.19435 -1.15928,0 -2.31855,0 -3.51296,0 -1.9978,-3.00609 -1.74842,-4.85036 -0.98802,-8.28291 0.17887,-0.83665 0.35775,-1.67331 0.54204,-2.53531 0.14717,-0.63516 0.29435,-1.27031 0.44598,-1.92472 z"
     fill="#dfe4e6"
     id="path73"
     style="opacity:1;stroke-width:0.863765" />
  <path
     d="m 127.83414,41.479639 c 2.52494,-0.10619 2.52494,-0.10619 5.26943,0 0.57964,0.56069 1.15928,1.12138 1.75648,1.69906 -0.32934,2.23002 -0.32934,2.23002 -0.87824,4.24765 -2.02873,0 -4.05746,0 -6.14767,0 0,-1.96241 0,-3.92483 0,-5.94671 z"
     fill="#e8ebed"
     id="path74"
     style="opacity:1;stroke-width:0.863765" />
  <path
     d="m 69.870343,75.460809 c 1.20813,1.0956 2.37798,2.23163 3.51296,3.39812 0,0.56069 0,1.12138 0,1.69906 -4.05747,0 -8.11493,0 -12.29535,0 0,-0.56069 0,-1.12138 0,-1.69906 2.89819,-1.12138 5.79638,-2.24276 8.78239,-3.39812 z"
     fill="#d9d7d7"
     id="path75"
     style="opacity:1;stroke-width:0.863765" />
  <path
     d="m 208.63216,44.028229 c 0.28982,0 0.57964,0 0.87824,0 0,4.76586 0,9.53172 0,14.442 -1.73891,0.28034 -3.47783,0.56069 -5.26944,0.84953 -0.98802,-3.18574 -0.98802,-3.18574 0,-5.09718 0.57964,0 1.15928,0 1.75648,0 0.28982,-0.56069 0.57964,-1.12138 0.87824,-1.69906 0.28982,0.56069 0.57964,1.12138 0.87824,1.69906 0.28982,-3.36413 0.57964,-6.72827 0.87824,-10.19435 z"
     fill="#30343a"
     id="path76"
     style="opacity:1;stroke-width:0.863765" />
  <path
     d="m 71.626823,48.275879 c 0,0.84103 0,1.68207 0,2.54859 -2.02873,0 -4.05747,0 -6.14768,0 0,1.68206 0,3.36413 0,5.09717 0.86946,0 1.73892,0 2.63472,0 0,0.56069 0,1.12138 0,1.69906 -1.44909,0 -2.89819,0 -4.39119,0 0,-2.80345 0,-5.60689 0,-8.49529 4.94009,-1.80525 4.94009,-1.80525 7.90415,-0.84953 z"
     fill="#030408"
     id="path77"
     style="opacity:1;stroke-width:0.863765" />
  <path
     d="m 222.68399,54.222579 c 2.92746,0 5.85493,0 8.78239,0 0.0375,1.41542 0.0357,2.83219 0,4.24765 -0.28982,0.28034 -0.57963,0.56069 -0.87824,0.84953 -2.05459,-0.24407 -4.10481,-0.52617 -6.14767,-0.84953 -0.57964,-1.40172 -1.15928,-2.80345 -1.75648,-4.24765 z"
     fill="#11151c"
     id="path78"
     style="opacity:1;stroke-width:0.863765" />
  <path
     d="m 4.0023913,67.815049 c 0.289819,0 0.579638,0 0.87824,0 0.03283,0.52236 0.06566,1.04472 0.09949,1.58291 0.05774,0.68663 0.115475,1.37325 0.174962,2.08068 0.05094,0.68006 0.101889,1.36011 0.154378,2.06078 0.535459,2.28928 1.147,3.08198 3.084129,4.46998 3.1706467,0.62051 3.1706467,0.62051 6.1476757,0.84953 -4.6492667,2.40926 -4.6492667,2.40926 -7.0259147,2.54859 -2.470048,-1.00882 -2.470048,-1.00882 -4.391197,-3.39812 -0.114014,-3.46024 0.317823,-6.78075 0.878239,-10.19435 z"
     fill="#24252a"
     id="path79"
     style="opacity:1;stroke-width:0.863765" />
  <path
     d="m 36.497243,66.115989 c 0.66681,0.41942 1.33363,0.83885 2.02064,1.27098 0.87285,0.54426 1.74571,1.08852 2.64501,1.64928 0.86606,0.54207 1.73212,1.08414 2.62443,1.64264 2.32908,1.47399 2.32908,1.47399 5.00528,2.23334 0,1.12137 0,2.24275 0,3.39811 -8.14439,-2.50668 -8.14439,-2.50668 -10.26443,-5.46884 -1.15269,-2.17692 -1.15269,-2.17692 -2.03093,-4.72551 z"
     fill="#cb9f6f"
     id="path80"
     style="opacity:1;stroke-width:0.863765" />
  <path
     d="m 80.409213,64.416929 c 0.28982,0.84104 0.57964,1.68207 0.87824,2.54859 1.42848,1.44918 2.88947,2.8695 4.3912,4.24765 -1.48203,0.58405 -1.48203,0.58405 -3.51296,0.84953 -2.36027,-1.2212 -2.36027,-1.2212 -4.3912,-2.54859 -0.28981,0 -0.57963,0 -0.87823,0 0,-1.40172 0,-2.80345 0,-4.24765 1.75647,-0.84953 1.75647,-0.84953 3.51295,-0.84953 z"
     fill="#090d16"
     id="path81"
     style="opacity:1;stroke-width:0.863765" />
  <path
     d="m 49.670843,23.639529 c 2.15926,-0.0457 4.31749,-0.0795 6.47701,-0.10619 0.9204,-0.0214 0.9204,-0.0214 1.8594,-0.0431 1.61314,-0.015 3.2265,0.0618 4.83718,0.14933 0.57963,0.56069 1.15927,1.12138 1.75647,1.69906 -0.57963,0.56069 -1.15927,1.12138 -1.75647,1.69906 -2.43021,-0.15407 -4.73545,-0.39447 -7.1357,-0.74334 -0.66228,-0.0887 -1.32456,-0.17741 -2.00691,-0.2688 -1.63764,-0.22057 -3.27362,-0.45266 -4.90922,-0.68692 0.28981,-0.56069 0.57963,-1.12138 0.87824,-1.69906 z"
     fill="#0e0301"
     id="path82"
     style="opacity:1;stroke-width:0.863765" />
  <path
     d="m 28.208864,9.1444385 c 1.059651,0.0263 1.059651,0.0263 2.140708,0.0531 0.5489,2.0176405 0.5489,2.0176405 0.87824,4.2476505 -0.579638,0.56069 -1.159276,1.12138 -1.756479,1.69906 -1.866259,-0.31857 -1.866259,-0.31857 -3.512958,-0.84953 -0.335652,-1.40695 -0.627019,-2.82432 -0.878239,-4.24765 0.878239,-0.8495305 0.878239,-0.8495305 3.128728,-0.9026205 z"
     fill="#dcd770"
     id="path83"
     style="opacity:1;stroke-width:0.863765" />
  <path
     d="m 14.157034,9.1444385 c 1.059651,0.0263 1.059651,0.0263 2.140708,0.0531 0.5489,2.0176405 0.5489,2.0176405 0.87824,4.2476505 -0.579638,0.56069 -1.159276,1.12138 -1.756479,1.69906 -1.866259,-0.31857 -1.866259,-0.31857 -3.512957,-0.84953 -0.335653,-1.40695 -0.62702,-2.82432 -0.87824,-4.24765 0.87824,-0.8495305 0.87824,-0.8495305 3.128728,-0.9026205 z"
     fill="#ba6772"
     id="path84"
     style="opacity:1;stroke-width:0.863765" />
  <path
     d="m 145.39893,44.028229 c 0.57963,0.28035 1.15927,0.56069 1.75647,0.84953 -0.86945,1.26155 -0.86945,1.26155 -1.75647,2.54859 0.57963,0 1.15927,0 1.75647,0 0,-0.56069 0,-1.12138 0,-1.69906 0.57964,0 1.15928,0 1.75648,0 0,0.56069 0,1.12138 0,1.69906 1.4491,0 2.89819,0 4.3912,0 0,0.84103 0,1.68207 0,2.54859 -3.36564,0.0757 -6.38095,-0.10307 -9.66063,-0.84953 -0.28982,-0.84104 -0.57964,-1.68207 -0.87824,-2.54859 0.86945,-0.84103 1.73891,-1.68207 2.63472,-2.54859 z"
     fill="#66696d"
     id="path85"
     style="opacity:1;stroke-width:0.863765" />
  <path
     d="m 18.054221,20.241409 c 0.289819,0.84104 0.579638,1.68207 0.87824,2.54859 -5.651471,0.42052 -5.651471,0.42052 -11.4171117,0.84953 -0.289819,-0.84103 -0.579638,-1.68207 -0.87824,-2.54859 3.8722877,-0.93642 7.4508287,-0.91455 11.4171117,-0.84953 z"
     fill="#121215"
     id="path86"
     style="opacity:1;stroke-width:0.863765" />
  <path
     d="m 42.260693,9.1444385 c 1.05965,0.0263 1.05965,0.0263 2.14071,0.0531 0.5489,2.0176405 0.5489,2.0176405 0.87824,4.2476505 -0.57964,0.56069 -1.15928,1.12138 -1.75648,1.69906 -1.86626,-0.31857 -1.86626,-0.31857 -3.51296,-0.84953 -0.33565,-1.40695 -0.62702,-2.82432 -0.87824,-4.24765 0.87824,-0.8495305 0.87824,-0.8495305 3.12873,-0.9026205 z"
     fill="#bcdcc3"
     id="path87"
     style="opacity:1;stroke-width:0.863765" />
  <path
     d="m 39.131963,6.6489485 c 5.65181,-0.30946 5.65181,-0.30946 7.84927,1.06191 0.93313,1.48667 0.93313,1.48667 0.93313,4.8847905 -0.86946,0.28035 -1.73892,0.56069 -2.63472,0.84953 -0.28982,-1.40172 -0.57964,-2.80345 -0.87824,-4.2476505 -1.73891,0 -3.47783,0 -5.26944,0 0,-0.84103 0,-1.68206 0,-2.54858 z"
     fill="#060e0c"
     id="path88"
     style="opacity:1;stroke-width:0.863765" />
  <path
     d="m 222.68399,49.125409 c 1.73891,0 3.47783,0 5.26944,0 0.21956,2.3893 0.21956,2.3893 0,5.09717 -1.75648,1.59287 -1.75648,1.59287 -3.51296,2.54859 0,-0.84103 0,-1.68207 0,-2.54859 -0.57964,0 -1.15928,0 -1.75648,0 0,-1.68207 0,-3.36413 0,-5.09717 z"
     fill="#06070c"
     id="path89"
     style="opacity:1;stroke-width:0.863765" />
  <path
     d="m 27.714854,21.940469 c 6.086199,0 12.172399,0 18.443029,0 0,0.84104 0,1.68207 0,2.54859 -1.73892,0.56069 -3.47783,1.12138 -5.26944,1.69906 0,-2.54859 0,-2.54859 0.87824,-3.39812 -4.6371,0 -9.274207,0 -14.051829,0 0,-0.28034 0,-0.56069 0,-0.84953 z"
     fill="#cececd"
     id="path90"
     style="opacity:1;stroke-width:0.863765" />
  <path
     d="m 145.89294,48.222779 c 1.05965,0.0263 1.05965,0.0263 2.1407,0.0531 0,0.84103 0,1.68207 0,2.54859 1.4491,0 2.89819,0 4.3912,0 0,0.28034 0,0.56068 0,0.84952 -0.94191,0.10513 -1.88382,0.21026 -2.85428,0.31858 -2.74769,0.44298 -4.46567,0.87152 -6.80635,2.23001 -0.0374,-1.69867 -0.0358,-3.39847 0,-5.09717 0.87824,-0.84953 0.87824,-0.84953 3.12873,-0.90263 z"
     fill="#05080c"
     id="path91"
     style="opacity:1;stroke-width:0.863765" />
  <path
     d="m 274.50011,45.727289 c 1.73892,0.84103 1.73892,0.84103 3.51296,1.69906 0.28982,-0.56069 0.57964,-1.12138 0.87824,-1.69906 0,0.84103 0,1.68207 0,2.54859 1.15928,0.56069 2.31855,1.12138 3.51296,1.69906 -1.0978,1.32739 -1.0978,1.32739 -2.63472,2.54858 -2.61186,-0.22968 -3.38514,-0.72589 -5.26944,-2.54858 -0.10978,-2.23002 -0.10978,-2.23002 0,-4.24765 z"
     fill="#14181d"
     id="path92"
     style="opacity:1;stroke-width:0.863765" />
  <path
     d="m 11.028306,6.6489485 c 5.572491,-0.30512 5.572491,-0.30512 7.849265,0.90262 1.420373,2.5054205 1.096746,4.7965905 0.933129,7.5926705 -0.869457,-0.28035 -1.738914,-0.56069 -2.634718,-0.84953 -0.253592,-0.82351 -0.507183,-1.64703 -0.76846,-2.49549 -0.714549,-2.7811805 -0.714549,-2.7811805 -3.293397,-3.7697905 -0.68832,-0.17521 -1.37664,-0.35043 -2.085819,-0.53095 0,-0.28035 0,-0.56069 0,-0.84953 z"
     fill="#110709"
     id="path93"
     style="opacity:1;stroke-width:0.863765" />
  <path
     d="m 55.104943,22.736909 c 1.11739,0.008 2.23478,0.0153 3.38603,0.0232 1.2855,0.0148 1.2855,0.0148 2.59698,0.0299 0,0.28035 0,0.56069 0,0.84953 -5.65147,0.42052 -5.65147,0.42052 -11.41711,0.84953 2.60837,0.28034 5.21674,0.56069 7.90415,0.84953 0,0.28034 0,0.56069 0,0.84953 -4.05747,0 -8.11493,0 -12.29535,0 0.28982,-0.84104 0.57964,-1.68207 0.87824,-2.54859 3.12693,-1.00824 5.65418,-0.93185 8.94706,-0.90262 z"
     fill="#3b3028"
     id="path94"
     style="opacity:1;stroke-width:0.863765" />
  <path
     d="m 261.32652,48.275879 c 1.4491,0.28034 2.89819,0.56069 4.3912,0.84953 0,1.40172 0,2.80344 0,4.24764 -1.6467,0.53096 -1.6467,0.53096 -3.51296,0.84953 -0.57964,-0.56069 -1.15927,-1.12138 -1.75648,-1.69906 0.32934,-2.23001 0.32934,-2.23001 0.87824,-4.24764 z"
     fill="#e8ebee"
     id="path95"
     style="opacity:1;stroke-width:0.863765" />
  <path
     d="m 147.1554,43.178699 c 2.02874,0 4.05747,0 6.14768,0 0.28982,1.40173 0.57964,2.80345 0.87824,4.24765 -1.73891,0 -3.47783,0 -5.26944,0 0,-0.56069 0,-1.12138 0,-1.69906 -0.57963,0 -1.15927,0 -1.75648,0 0,0.56069 0,1.12138 0,1.69906 -0.57963,0 -1.15927,0 -1.75647,0 0.57963,-1.40172 1.15927,-2.80345 1.75647,-4.24765 z"
     fill="#05080d"
     id="path96"
     style="opacity:1;stroke-width:0.863765" />
  <path
     d="m 163.84195,45.727289 c 0.57964,0.28034 1.15928,0.56069 1.75648,0.84953 0,1.68207 0,3.36414 0,5.09717 -0.86946,0 -1.73891,0 -2.63472,0 -0.28982,0.84104 -0.57963,1.68207 -0.87824,2.54859 -0.28982,0 -0.57963,0 -0.87824,0 -0.25729,-5.14363 -0.25729,-5.14363 0,-6.79623 0.86946,-0.56069 1.73892,-1.12138 2.63472,-1.69906 z"
     fill="#04080d"
     id="path97"
     style="opacity:1;stroke-width:0.863765" />
  <path
     d="m 76.896263,45.727289 c 1.75647,1.69906 1.75647,1.69906 1.92114,4.93789 -0.0657,2.68469 -0.36736,5.19121 -1.04291,7.80505 -1.76066,-1.63214 -2.57338,-2.91403 -2.87143,-5.26642 -0.0361,-1.9732 -0.0634,-3.8242 0.23672,-5.77746 0.57963,-0.56069 1.15927,-1.12138 1.75648,-1.69906 z"
     fill="#342722"
     id="path98"
     style="opacity:1;stroke-width:0.863765" />
  <path
     d="m 212.14512,35.532939 c 1.44909,0 2.89819,0 4.39119,0 0.28982,1.40172 0.57964,2.80345 0.87824,4.24765 -1.45449,0.32468 -2.91976,0.60652 -4.39119,0.84952 -0.87824,-0.84952 -0.87824,-0.84952 -0.93313,-3.02644 0.0181,-0.68334 0.0362,-1.36668 0.0549,-2.07073 z"
     fill="#0e121a"
     id="path99"
     style="opacity:1;stroke-width:0.863765" />
  <path
     d="m 59.331473,28.736709 c 1.26551,0.36185 2.5273,0.73591 3.78741,1.115 0.70303,0.20698 1.40607,0.41395 2.13041,0.62719 2.07385,0.84192 3.16212,1.72452 4.62105,3.35498 -4.3321,1.39683 -6.62214,0.15815 -10.53887,-1.69906 0,-1.1327 0,-2.26541 0,-3.39811 z"
     fill="#261713"
     id="path100"
     style="opacity:1;stroke-width:0.863765" />
  <path
     d="m 11.028306,13.445179 c 1.00531,0.21026 1.00531,0.21026 2.030929,0.42476 2.391852,0.50246 2.391852,0.50246 4.994986,0.42477 0,0.84103 0,1.68207 0,2.54859 -0.878239,0.84953 -0.878239,0.84953 -4.006967,0.90262 -0.996253,-0.0175 -1.992505,-0.035 -3.018948,-0.0531 -0.289819,-0.84104 -0.579638,-1.68207 -0.878239,-2.54859 0.289819,-0.56069 0.579638,-1.12138 0.878239,-1.69906 z"
     fill="#1d0f16"
     id="path101"
     style="opacity:1;stroke-width:0.863765" />
  <path
     d="m 136.61653,45.727289 c 0.57964,0.28034 1.15928,0.56069 1.75648,0.84953 -0.22449,1.99055 -0.52054,3.97447 -0.87824,5.9467 -0.86946,0.42052 -0.86946,0.42052 -1.75648,0.84953 -1.15927,-1.40172 -2.31855,-2.80344 -3.51295,-4.24764 1.44909,-1.12138 2.89819,-2.24276 4.39119,-3.39812 z"
     fill="#030609"
     id="path102"
     style="opacity:1;stroke-width:0.863765" />
  <path
     d="m 74.261543,78.009399 c 5.77128,3.39812 5.77128,3.39812 7.02591,6.79623 -1.15927,0 -2.31855,0 -3.51296,0 -0.28981,-0.84103 -0.57963,-1.68206 -0.87823,-2.54858 -0.86946,0 -1.73892,0 -2.63472,0 0,-1.40173 0,-2.80345 0,-4.24765 z"
     fill="#02060c"
     id="path103"
     style="opacity:1;stroke-width:0.863765" />
  <path
     d="m 31.227812,36.382469 c 0.579638,0 1.159276,0 1.756478,0 -1.170985,3.39812 -2.341971,6.79623 -3.512957,10.19435 -0.289819,-1.12138 -0.579638,-2.24276 -0.878239,-3.39812 -0.579638,0 -1.159276,0 -1.756479,0 0.579638,-1.68207 1.159276,-3.36413 1.756479,-5.09717 0.869457,0.28034 1.738914,0.56069 2.634718,0.84953 0,-0.84104 0,-1.68207 0,-2.54859 z"
     fill="#27120b"
     id="path104"
     style="opacity:1;stroke-width:0.863765" />
  <path
     d="m 265.71772,49.974939 c 0.28982,0.56069 0.57964,1.12137 0.87824,1.69905 0.57964,0.28035 1.15927,0.56069 1.75648,0.84953 -0.56153,0.6483 -1.12305,1.2966 -1.70159,1.96454 -1.93637,2.18326 -1.93637,2.18326 -2.68961,4.8317 -1.15928,-0.28035 -2.31855,-0.56069 -3.51296,-0.84953 0.57964,-1.12138 1.15928,-2.24276 1.75648,-3.39812 0.57964,0 1.15928,0 1.75648,0 0,-0.56069 0,-1.12138 0,-1.69906 0.57964,0 1.15928,0 1.75648,0 0,-1.12138 0,-2.24275 0,-3.39811 z"
     fill="#1a1e23"
     id="path105"
     style="opacity:1;stroke-width:0.863765" />
  <path
     d="m 157.69428,51.673989 c 0.28982,0.56069 0.57964,1.12138 0.87824,1.69906 -3.36356,1.53111 -5.95554,1.86576 -9.66064,1.69906 -0.28982,-0.84103 -0.57963,-1.68207 -0.87824,-2.54859 4.78202,-0.42051 4.78202,-0.42051 9.66064,-0.84953 z"
     fill="#d7dbe2"
     id="path106"
     style="opacity:1;stroke-width:0.863765" />
  <path
     d="m 32.98429,44.028229 c 1.756483,1.69906 1.756483,1.69906 1.928013,3.53749 -0.0204,0.68992 -0.0408,1.37983 -0.0617,2.09064 -0.0159,0.69429 -0.0317,1.38858 -0.048,2.10392 -0.0306,0.79832 -0.0306,0.79832 -0.0617,1.61277 -0.57964,-0.84103 -1.15928,-1.68206 -1.756483,-2.54858 -0.579638,1.12137 -1.159276,2.24275 -1.756478,3.39811 -0.250926,-7.28168 -0.250926,-7.28168 1.756478,-10.19435 z"
     fill="#392720"
     id="path107"
     style="opacity:1;stroke-width:0.863765" />
  <path
     d="m 73.383303,29.586239 c 3.71318,2.54418 3.71318,2.54418 5.26943,4.24764 0.32934,2.81407 0.32934,2.81407 0,5.09718 -2.0509,-1.91774 -3.67723,-3.63648 -5.26943,-5.94671 0,-1.12138 0,-2.24276 0,-3.39811 z"
     fill="#110704"
     id="path108"
     style="opacity:1;stroke-width:0.863765" />
  <path
     d="m 65.479143,50.824469 c 1.4491,0 2.89819,0 4.3912,0 0.49401,1.64596 0.49401,1.64596 0.87824,3.39811 -0.87824,0.84953 -0.87824,0.84953 -3.12873,0.90263 -1.05965,-0.0263 -1.05965,-0.0263 -2.14071,-0.0531 0,-1.40172 0,-2.80344 0,-4.24764 z"
     fill="#f1f3f6"
     id="path109"
     style="opacity:1;stroke-width:0.863765" />
  <path
     d="m 34.740773,30.435759 c 0.57963,0 1.15927,0 1.75647,0 0,0.56069 0,1.12138 0,1.69906 -0.57963,0 -1.15927,0 -1.75647,0 -0.28982,1.40173 -0.57964,2.80345 -0.87824,4.24765 -0.86946,0 -1.738917,0 -2.634721,0 0,0.84103 0,1.68207 0,2.54859 -0.579638,0 -1.159276,0 -1.756479,0 0.445623,-3.73581 2.707553,-5.83584 5.26944,-8.4953 z"
     fill="#110a09"
     id="path110"
     style="opacity:1;stroke-width:0.863765" />
  <path
     d="m 53.183793,28.736709 c 3.01895,-0.31858 3.01895,-0.31858 6.14768,0 0.86946,0.84103 1.73891,1.68206 2.63472,2.54858 -3.47783,0 -6.95566,0 -10.53888,0 0.57964,-0.84103 1.15928,-1.68206 1.75648,-2.54858 z"
     fill="#090102"
     id="path111"
     style="opacity:1;stroke-width:0.863765" />
  <path
     d="m 48.792603,71.213169 c 1.24379,-0.0463 2.48812,-0.079 3.73251,-0.10619 0.69285,-0.0197 1.3857,-0.0394 2.09954,-0.0597 2.0721,0.16593 2.0721,0.16593 5.58506,1.86499 -3.18801,0.28034 -6.37602,0.56068 -9.66064,0.84952 -0.57963,-0.84103 -1.15927,-1.68206 -1.75647,-2.54858 z"
     fill="#0a0101"
     id="path112"
     style="opacity:1;stroke-width:0.863765" />
  <path
     d="m 275.37835,54.222579 c 2.31855,0.28035 4.63711,0.56069 7.02592,0.84953 -1.73892,0.84104 -1.73892,0.84104 -3.51296,1.69906 0,0.84103 0,1.68207 0,2.54859 -2.17364,-0.84104 -2.17364,-0.84104 -4.3912,-1.69906 0.28982,-1.12138 0.57964,-2.24276 0.87824,-3.39812 z"
     fill="#13171f"
     id="path113"
     style="opacity:1;stroke-width:0.863765" />
  <path
     d="m 295.57786,52.523519 c 3.18801,0 6.37602,0 9.66063,0 -0.28982,0.56069 -0.57964,1.12138 -0.87824,1.69906 -1.8148,0.35176 -1.8148,0.35176 -4.00697,0.53096 -0.72568,0.0635 -1.45136,0.12703 -2.19903,0.19247 -0.84058,0.0624 -0.84058,0.0624 -1.69815,0.1261 -0.28982,-0.84103 -0.57964,-1.68207 -0.87824,-2.54859 z"
     fill="#d6dae0"
     id="path114"
     style="opacity:1;stroke-width:0.863765" />
  <path
     d="m 1.3676733,38.081529 c 0.289819,0 0.579638,0 0.87824,0 0.289819,4.76586 0.579638,9.53172 0.878239,14.44199 -0.579638,0.28035 -1.159276,0.56069 -1.756479,0.84953 -1.08113904,-3.13738 -0.76560604,-5.84519 -0.49400904,-9.07934 0.04585,-0.59628 0.0917,-1.19256 0.13894004,-1.80691 0.113623,-1.46877 0.233719,-2.93708 0.355069,-4.40527 z"
     fill="#000102"
     id="path115"
     style="opacity:1;stroke-width:0.863765" />
  <path
     d="m 1.3676733,18.542359 c 0.579638,0 1.159276,0 1.756479,0 0,0.84103 0,1.68206 0,2.54858 1.159276,0 2.318552,0 3.512957,0 0.289819,0.84104 0.579638,1.68207 0.87824,2.54859 -2.028733,0.28035 -4.057466,0.56069 -6.147676,0.84953 0,-1.96241 0,-3.92483 0,-5.9467 z"
     fill="#010307"
     id="path116"
     style="opacity:1;stroke-width:0.863765" />
  <path
     d="m 199.84977,55.072109 c 1.15927,0.28035 2.31855,0.56069 3.51295,0.84953 -0.57963,1.12138 -1.15927,2.24276 -1.75647,3.39812 -2.60838,-0.42052 -2.60838,-0.42052 -5.26944,-0.84953 0.28982,-0.56069 0.57964,-1.12138 0.87824,-1.69906 0.86946,0 1.73891,0 2.63472,0 0,-0.56069 0,-1.12138 0,-1.69906 z"
     fill="#13171b"
     id="path117"
     style="opacity:1;stroke-width:0.863765" />
  <path
     d="m 49.670843,26.188119 c 1.24379,-0.0463 2.48812,-0.079 3.73251,-0.10619 0.69285,-0.0197 1.3857,-0.0394 2.09954,-0.0597 2.25418,0.18051 3.64556,0.77203 5.58506,1.86499 -4.04933,1.10164 -7.32311,0.60409 -11.41711,0 0,-0.56069 0,-1.12138 0,-1.69906 z"
     fill="#d4a578"
     id="path118"
     style="opacity:1;stroke-width:0.863765" />
  <path
     d="m 80.409213,57.620699 c 0.28982,0.84103 0.57964,1.68207 0.87824,2.54859 0.57964,0.28034 1.15928,0.56069 1.75648,0.84953 -0.57964,1.40172 -1.15927,2.80344 -1.75648,4.24764 -1.15927,0 -2.31855,0 -3.51296,0 0.86946,-2.5231 1.73892,-5.0462 2.63472,-7.64576 z"
     fill="#20130d"
     id="path119"
     style="opacity:1;stroke-width:0.863765" />
  <path
     d="m 154.18132,54.222579 c 1.15928,0.28035 2.31855,0.56069 3.51296,0.84953 0,1.12138 0,2.24276 0,3.39812 -1.4491,0.28034 -2.89819,0.56069 -4.3912,0.84953 -0.28982,-1.12138 -0.57964,-2.24276 -0.87824,-3.39812 0.57964,0 1.15928,0 1.75648,0 0,-0.56069 0,-1.12138 0,-1.69906 z"
     fill="#12161d"
     id="path120"
     style="opacity:1;stroke-width:0.863765" />
  <path
     d="m 57.574993,52.523519 c 1.81137,0.37167 1.81137,0.37167 3.51296,0.84953 -1.42574,1.45171 -2.89221,2.86671 -4.3912,4.24765 -0.57964,0 -1.15928,0 -1.75648,0 0,-0.56069 0,-1.12138 0,-1.69906 -0.86946,-0.28034 -1.73891,-0.56069 -2.63472,-0.84953 0.70644,-0.26282 1.41287,-0.52564 2.14071,-0.79643 2.15459,-0.70159 2.15459,-0.70159 3.12873,-1.75216 z"
     fill="#18181f"
     id="path121"
     style="opacity:1;stroke-width:0.863765" />
  <path
     d="m 268.35244,44.028229 c 0,0.84104 0,1.68207 0,2.54859 -0.57964,0.56069 -1.15928,1.12138 -1.75648,1.69906 -2.25049,-0.21238 -2.25049,-0.21238 -4.3912,-0.84953 -0.28982,-0.56069 -0.57964,-1.12138 -0.87824,-1.69906 2.83488,-1.82814 3.76239,-1.8697 7.02592,-1.69906 z"
     fill="#05080c"
     id="path122"
     style="opacity:1;stroke-width:0.863765" />
  <path
     d="m 1.3676733,10.047059 c 0.289819,1.12138 0.579638,2.24276 0.87824,3.39812 0.579638,0 1.159276,0 1.756478,0 0,2.5231 0,5.0462 0,7.64576 -0.289819,-0.84103 -0.579638,-1.68206 -0.878239,-2.54858 -0.579638,0 -1.159276,0 -1.756479,0 0,-2.80345 0,-5.6069 0,-8.4953 z"
     fill="#141723"
     id="path123"
     style="opacity:1;stroke-width:0.863765" />
  <path
     d="m 92.704563,89.053279 c 2.03093,0.69024 2.03093,0.69024 3.51296,1.69906 -2.02873,1.12138 -4.05746,2.24276 -6.14767,3.39812 0,-0.56069 0,-1.12138 0,-1.69906 -0.57964,-0.28035 -1.15928,-0.56069 -1.75648,-0.84953 1.97604,-1.38049 1.97604,-1.38049 4.39119,-2.54859 z"
     fill="#0e131b"
     id="path124"
     style="opacity:1;stroke-width:0.863765" />
  <path
     d="m 123.44294,36.382469 c 1.71963,-0.0458 3.43962,-0.0788 5.15966,-0.10619 1.43664,-0.0296 1.43664,-0.0296 2.9023,-0.0597 2.47691,0.16592 2.47691,0.16592 4.23339,1.86498 -1.44909,0.56069 -2.89819,1.12138 -4.39119,1.69906 -0.57964,-0.56069 -1.15928,-1.12138 -1.75648,-1.69906 -2.03993,-0.34022 -4.09031,-0.62841 -6.14768,-0.84953 0,-0.28035 0,-0.56069 0,-0.84953 z"
     fill="#2a2d34"
     id="path125"
     style="opacity:1;stroke-width:0.863765" />
  <path
     d="m 220.04927,44.028229 c 0,1.40173 0,2.80345 0,4.24765 -0.57964,0 -1.15927,0 -1.75648,0 0,3.08379 0,6.16758 0,9.34482 -0.28982,0 -0.57963,0 -0.87824,0 0,-4.20517 0,-8.41034 0,-12.74294 1.75648,-0.84953 1.75648,-0.84953 2.63472,-0.84953 z"
     fill="#e0e4e7"
     id="path126"
     style="opacity:1;stroke-width:0.863765" />
  <path
     d="m 184.9197,43.178699 c 1.73891,0 3.47783,0 5.26943,0 0,1.40173 0,2.80345 0,4.24765 -0.86945,0.42052 -0.86945,0.42052 -1.75648,0.84953 -1.20813,-1.0956 -2.37797,-2.23162 -3.51295,-3.39812 0,-0.56069 0,-1.12138 0,-1.69906 z"
     fill="#0c1119"
     id="path127"
     style="opacity:1;stroke-width:0.863765" />
  <path
     d="m 301.72553,54.222579 c 1.73892,0.42052 1.73892,0.42052 3.51296,0.84953 0,1.12138 0,2.24276 0,3.39812 -0.86946,0.28034 -1.73891,0.56069 -2.63472,0.84953 -0.57964,-0.28035 -1.15927,-0.56069 -1.75648,-0.84953 0.28982,-1.40172 0.57964,-2.80345 0.87824,-4.24765 z"
     fill="#13171c"
     id="path128"
     style="opacity:1;stroke-width:0.863765" />
  <path
     d="m 138.37301,54.222579 c 0.57964,0 1.15928,0 1.75648,0 0.28982,1.12138 0.57964,2.24276 0.87824,3.39812 -2.63472,1.69906 -2.63472,1.69906 -5.26944,1.69906 -0.28982,-0.84104 -0.57963,-1.68207 -0.87824,-2.54859 0.86946,-0.28034 1.73892,-0.56069 2.63472,-0.84953 0.28982,-0.56069 0.57964,-1.12138 0.87824,-1.69906 z"
     fill="#1b1f25"
     id="path129"
     style="opacity:1;stroke-width:0.863765" />
  <path
     d="m 22.445418,19.391879 c 2.608371,0 5.216742,0 7.904154,0 0,0.28035 0,0.56069 0,0.84953 -1.738914,0.28035 -3.477828,0.56069 -5.269436,0.84953 0.869457,0.56069 1.738914,1.12138 2.634718,1.69906 -1.738914,0 -3.477828,0 -5.269436,0 0,-1.12138 0,-2.24276 0,-3.39812 z"
     fill="#41454b"
     id="path130"
     style="opacity:1;stroke-width:0.863765" />
  <path
     d="m 31.227812,12.595649 c 0.289819,0.56069 0.579638,1.12138 0.878239,1.69906 -0.823349,1.80525 -0.823349,1.80525 -1.756479,3.39812 -1.738914,0 -3.477828,0 -5.269436,0 0.65868,-1.64597 0.65868,-1.64597 1.756479,-3.39812 1.811369,-0.58405 1.811369,-0.58405 3.512957,-0.84953 0.289819,-0.28034 0.579638,-0.56069 0.87824,-0.84953 z"
     fill="#14150d"
     id="path131"
     style="opacity:1;stroke-width:0.863765" />
  <path
     d="m 38.253723,74.611279 c 1.15928,1.12138 2.31856,2.24276 3.51296,3.39812 -0.57964,0.56069 -1.15927,1.12138 -1.75648,1.69906 -1.15927,0 -2.31855,0 -3.51296,0 0.57964,-1.68207 1.15928,-3.36414 1.75648,-5.09718 z"
     fill="#f3f0f0"
     id="path132"
     style="opacity:1;stroke-width:0.863765" />
  <path
     d="m 172.62435,53.373049 c -1.13556,2.45037 -2.33561,4.13907 -4.3912,5.94671 0,-0.84104 0,-1.68207 0,-2.54859 -0.57964,-0.56069 -1.15928,-1.12138 -1.75648,-1.69906 4.17164,-1.69906 4.17164,-1.69906 6.14768,-1.69906 z"
     fill="#03070c"
     id="path133"
     style="opacity:1;stroke-width:0.863765" />
  <path
     d="m 32.106051,48.275879 c 1.729592,2.50957 2.256212,3.86715 2.634722,6.79623 -0.28982,0.84104 -0.57964,1.68207 -0.87824,2.54859 -0.579641,0 -1.159279,0 -1.756482,0 0,-3.08379 0,-6.16758 0,-9.34482 z"
     fill="#0f0403"
     id="path134"
     style="opacity:1;stroke-width:0.863765" />
  <path
     d="m 72.505063,78.009399 c 0.57964,0 1.15927,0 1.75648,0 0,1.40172 0,2.80345 0,4.24765 0.86945,0.28034 1.73891,0.56069 2.63472,0.84953 -2.60838,0 -5.21675,0 -7.90416,0 0.57964,-0.84104 1.15928,-1.68207 1.75648,-2.54859 0.86946,0 1.73891,0 2.63472,0 -0.28982,-0.84104 -0.57964,-1.68207 -0.87824,-2.54859 z"
     fill="#2d2f33"
     id="path135"
     style="opacity:1;stroke-width:0.863765" />
  <path
     d="m 58.453233,47.426349 c 0.86946,0 1.73891,0 2.63472,0 0,1.68207 0,3.36413 0,5.09717 -0.57964,0 -1.15928,0 -1.75648,0 -0.28982,0.56069 -0.57964,1.12138 -0.87824,1.69906 0,-2.24275 0,-4.48551 0,-6.79623 z"
     fill="#05060a"
     id="path136"
     style="opacity:1;stroke-width:0.863765" />
  <path
     d="m 0.48943426,19.391879 c 0.289819,0 0.57963804,0 0.87823904,0 0,1.68207 0,3.36414 0,5.09718 0.579638,0 1.159276,0 1.756479,0 -0.32934,2.07073 -0.32934,2.07073 -0.878239,4.24765 -0.869457,0.42051 -0.869457,0.42051 -1.75647904,0.84953 0,-3.36414 0,-6.72828 0,-10.19436 z"
     fill="#1e2128"
     id="path137"
     style="opacity:1;stroke-width:0.863765" />
  <path
     d="m 23.323657,10.047059 c 0.289819,0 0.579638,0 0.87824,0 0,1.40173 0,2.80345 0,4.24765 0.579638,0 1.159276,0 1.756478,0 0,0.56069 0,1.12138 0,1.69906 0.579638,0.28034 1.159276,0.56069 1.756479,0.84953 -4.281417,-0.74334 -4.281417,-0.74334 -5.269436,-1.69906 -0.10978,-2.12382 -0.10978,-2.12382 0,-4.24765 0.289819,-0.28034 0.579638,-0.56069 0.878239,-0.84953 z"
     fill="#070808"
     id="path138"
     style="opacity:1;stroke-width:0.863765" />
  <path
     d="m 97.095763,4.9498885 c 0.86946,0.84103 1.73891,1.68207 2.63472,2.54859 -0.57964,1.96241 -1.15928,3.9248205 -1.75648,5.9467005 -0.28982,0 -0.57964,0 -0.87824,0 -0.57964,-2.5231 -1.15927,-5.0462005 -1.75648,-7.6457605 0.57964,-0.28035 1.15928,-0.56069 1.75648,-0.84953 z"
     fill="#20242c"
     id="path139"
     style="opacity:1;stroke-width:0.863765" />
  <path
     d="m 83.922173,89.902809 c 2.60113,0.52057 3.84721,1.06508 6.14768,2.54859 0,0.56069 0,1.12138 0,1.69906 -2.08582,-0.21239 -2.08582,-0.21239 -4.3912,-0.84953 -1.15269,-1.75216 -1.15269,-1.75216 -1.75648,-3.39812 z"
     fill="#020409"
     id="path140"
     style="opacity:1;stroke-width:0.863765" />
  <path
     d="m 80.409213,64.416929 c 0.28982,1.12138 0.57964,2.24276 0.87824,3.39812 -1.44909,0.56069 -2.89819,1.12138 -4.39119,1.69906 0,-1.40172 0,-2.80345 0,-4.24765 1.75647,-0.84953 1.75647,-0.84953 3.51295,-0.84953 z"
     fill="#0a0406"
     id="path141"
     style="opacity:1;stroke-width:0.863765" />
  <path
     d="m 31.227812,66.115989 c 1.159276,0.28035 2.318552,0.56069 3.512961,0.84953 0.28982,1.68207 0.57963,3.36414 0.87824,5.09718 -2.195603,-1.53978 -2.195603,-1.53978 -4.391201,-3.39812 0,-0.84103 0,-1.68207 0,-2.54859 z"
     fill="#130807"
     id="path142"
     style="opacity:1;stroke-width:0.863765" />
  <path
     d="m 26.836615,54.222579 c 1.304185,0.84104 1.304185,0.84104 2.634718,1.69906 0.16467,2.65478 0.16467,2.65478 0,5.09718 -0.869457,0.42051 -0.869457,0.42051 -1.756479,0.84953 -1.298321,-2.51176 -0.931221,-4.87825 -0.878239,-7.64577 z"
     fill="#100605"
     id="path143"
     style="opacity:1;stroke-width:0.863765" />
  <path
     d="m 56.696753,43.178699 c 1.70159,0.69025 1.70159,0.69025 3.51296,1.69906 0.28982,0.84103 0.57964,1.68207 0.87824,2.54859 -4.17164,-0.63715 -4.17164,-0.63715 -6.14768,-2.54859 0.57964,-0.56069 1.15928,-1.12138 1.75648,-1.69906 z"
     fill="#191d20"
     id="path144"
     style="opacity:1;stroke-width:0.863765" />
  <path
     d="m 47.914363,26.188119 c 0.57963,0 1.15927,0 1.75648,0 0,0.56069 0,1.12138 0,1.69906 2.31855,0 4.6371,0 7.02591,0 0,0.28034 0,0.56069 0,0.84953 -3.18801,0.28034 -6.37602,0.56069 -9.66063,0.84953 0.28982,-1.12138 0.57964,-2.24276 0.87824,-3.39812 z"
     fill="#c59c76"
     id="path145"
     style="opacity:1;stroke-width:0.863765" />
  <path
     d="m 61.087953,21.940469 c 2.31855,0 4.6371,0 7.02591,0 -0.86946,1.26155 -0.86946,1.26155 -1.75648,2.54859 -2.60837,-0.42052 -2.60837,-0.42052 -5.26943,-0.84953 0,-0.56069 0,-1.12138 0,-1.69906 z"
     fill="#d4d6d4"
     id="path146"
     style="opacity:1;stroke-width:0.863765" />
  <path
     d="m 42.644923,9.1975285 c 0.57964,0 1.15928,0 1.75648,0 0.28982,1.4017305 0.57964,2.8034505 0.87824,4.2476505 -1.4491,-0.28034 -2.89819,-0.56069 -4.3912,-0.84953 0.57964,-1.12138 1.15928,-2.24276 1.75648,-3.3981205 z"
     fill="#a3c9a9"
     id="path147"
     style="opacity:1;stroke-width:0.863765" />
  <path
     d="m 94.461043,81.407519 c 0.57964,0.28034 1.15928,0.56069 1.75648,0.84953 -0.53587,4.66521 -0.53587,4.66521 -2.14071,6.69004 -1.37225,0.95572 -1.37225,0.95572 -3.12872,0.95572 0.87823,-2.54859 0.87823,-2.54859 2.25048,-3.76979 1.65888,-1.44357 1.65888,-1.44357 1.26247,-4.7255 z"
     fill="#3a5569"
     id="path148"
     style="opacity:1;stroke-width:0.863765" />
  <path
     d="m 97.974003,72.062699 c 0.28982,0 0.57964,0 0.87824,0 0.10978,4.88479 0.10978,4.88479 -0.87824,6.79623 -0.57964,0 -1.15928,0 -1.75648,0 -0.28982,-0.84103 -0.57964,-1.68207 -0.87824,-2.54859 1.20758,-2.28311 1.20758,-2.28311 2.63472,-4.24764 z"
     fill="#0e0f11"
     id="path149"
     style="opacity:1;stroke-width:0.863765" />
  <path
     d="m 65.479143,44.877759 c 2.17365,0.42052 2.17365,0.42052 4.3912,0.84953 -0.28982,0.84103 -0.57964,1.68207 -0.87824,2.54859 -1.15927,0 -2.31855,0 -3.51296,0 0,-1.12138 0,-2.24276 0,-3.39812 z"
     fill="#dfe2e6"
     id="path150"
     style="opacity:1;stroke-width:0.863765" />
  <path
     d="m 3.1241523,6.6489485 c 0.579638,0.28034 1.159276,0.56069 1.756479,0.84953 -0.289819,1.96241 -0.579638,3.9248205 -0.87824,5.9467005 -0.579638,0 -1.159276,0 -1.756478,0 -0.03725,-1.98191 -0.03595,-3.9647705 0,-5.9467005 0.289819,-0.28035 0.579638,-0.56069 0.878239,-0.84953 z"
     fill="#03070c"
     id="path151"
     style="opacity:1;stroke-width:0.863765" />
  <path
     d="m 48.792603,54.222579 c 2.09516,0.4892 4.09859,1.03836 6.14767,1.69906 0,0.56069 0,1.12138 0,1.69906 -1.44909,0 -2.89819,0 -4.3912,0 -0.57963,-1.12138 -1.15927,-2.24276 -1.75647,-3.39812 z"
     fill="#0a0a11"
     id="path152"
     style="opacity:1;stroke-width:0.863765" />
  <path
     d="m 38.253723,31.285289 c 1.15928,0 2.31856,0 3.51296,0 -0.87824,2.54859 -0.87824,2.54859 -2.68961,3.55741 -0.56152,0.22778 -1.12305,0.45556 -1.70159,0.69024 -0.28981,-0.84103 -0.57963,-1.68207 -0.87824,-2.54859 0.57964,-0.56069 1.15928,-1.12138 1.75648,-1.69906 z"
     fill="#cd9f6b"
     id="path153"
     style="opacity:1;stroke-width:0.863765" />
  <path
     d="m 25.080136,3.2508285 c 2.318552,0 4.637104,0 7.025915,0 0,0.28034 0,0.56069 0,0.84953 -1.449095,0 -2.89819,0 -4.391197,0 0,0.56069 0,1.12138 0,1.69906 0.579638,0.28034 1.159276,0.56069 1.756479,0.84953 -1.159276,0 -2.318552,0 -3.512958,0 -0.289819,-1.12138 -0.579638,-2.24276 -0.878239,-3.39812 z"
     fill="#abb2b6"
     id="path154"
     style="opacity:1;stroke-width:0.863765" />
  <path
     d="m 9.2718283,1.5517685 c 2.0287317,0.28035 4.0574647,0.56069 6.1476747,0.84953 0,0.56069 0,1.12138 0,1.69906 -1.738914,0.28034 -3.477828,0.56069 -5.269436,0.84953 0.289819,-0.56069 0.579638,-1.12138 0.878239,-1.69906 -0.579638,-0.56069 -1.1592757,-1.12138 -1.7564777,-1.69906 z"
     fill="#353741"
     id="path155"
     style="opacity:1;stroke-width:0.863765" />
</svg>
